<?xml version="1.0" encoding="UTF-8" standalone="no"?>
<!-- Created with Inkscape (http://www.inkscape.org/) -->

<svg
   width="216.08087mm"
   height="110.24459mm"
   viewBox="0 0 216.08087 110.24459"
   version="1.1"
   id="svg1"
   xml:space="preserve"
   inkscape:version="1.3.2 (091e20e, 2023-11-25, custom)"
   sodipodi:docname="binaracademy.svg"
   xmlns:inkscape="http://www.inkscape.org/namespaces/inkscape"
   xmlns:sodipodi="http://sodipodi.sourceforge.net/DTD/sodipodi-0.dtd"
   xmlns="http://www.w3.org/2000/svg"
   xmlns:svg="http://www.w3.org/2000/svg"><sodipodi:namedview
     id="namedview1"
     pagecolor="#ffffff"
     bordercolor="#000000"
     borderopacity="0.25"
     inkscape:showpageshadow="2"
     inkscape:pageopacity="0.0"
     inkscape:pagecheckerboard="0"
     inkscape:deskcolor="#d1d1d1"
     inkscape:document-units="mm"
     inkscape:zoom="0.69219276"
     inkscape:cx="337.33378"
     inkscape:cy="227.53777"
     inkscape:window-width="1920"
     inkscape:window-height="991"
     inkscape:window-x="-9"
     inkscape:window-y="-9"
     inkscape:window-maximized="1"
     inkscape:current-layer="layer1" /><defs
     id="defs1" /><g
     inkscape:label="Layer 1"
     inkscape:groupmode="layer"
     id="layer1"
     transform="translate(-15.593413,-88.404283)"><path
       style="fill:#733572;fill-opacity:1"
       d="m 40.596437,178.34143 v -20.30745 l 0.6985,-0.0544 c 0.384175,-0.0299 0.860425,-0.0546 1.058333,-0.0549 l 0.359833,-5.1e-4 v 4.14867 c 0,2.28177 0.02858,4.1485 0.0635,4.1483 0.03492,-2e-4 0.30064,-0.46692 0.590478,-1.03716 3.998929,-7.86769 12.174609,-13.1496 20.89369,-13.4984 l 1.27,-0.0508 -0.02375,0.83754 c -0.0736,2.59578 -0.62064,5.33289 -1.597265,7.99187 -0.399469,1.0876 -1.509742,3.31918 -2.181483,4.38466 -3.875997,6.14786 -10.26627,10.36574 -17.279507,11.40527 -0.512233,0.0759 -1.102783,0.16459 -1.312333,0.19704 l -0.381,0.059 -0.02161,7.76736 -0.02161,7.76735 H 54.142657 65.5731 v 1.10067 1.10067 h -11.43 -11.430001 v 2.20133 2.20133 H 41.65477 40.596437 Z m -24.976668,14.80412 v -1.10067 h 11.345334 11.345333 v 1.10067 1.10067 H 26.965103 15.619769 Z m 101.560691,-8.97848 c -1.29198,-0.20288 -2.30565,-0.72049 -3.22036,-1.6444 -0.77979,-0.78763 -1.18348,-1.47944 -1.5332,-2.62745 -0.21176,-0.69514 -0.23249,-0.88458 -0.23631,-2.159 -0.005,-1.61931 0.0841,-2.05417 0.66733,-3.26342 1.02657,-2.12835 3.11336,-3.34354 5.73411,-3.33911 1.6423,0.003 2.87454,0.44136 4.03511,1.43623 l 0.20037,0.17176 -0.35128,0.46527 c -0.42863,0.56771 -0.55296,0.58045 -1.2348,0.12654 -0.84268,-0.561 -1.43149,-0.71972 -2.667,-0.71892 -0.8078,5.2e-4 -1.16856,0.038 -1.524,0.15838 -1.20935,0.40956 -2.09362,1.18195 -2.62011,2.28859 -0.4552,0.95681 -0.55549,1.44346 -0.55119,2.67468 0.004,1.13153 0.1655,1.87366 0.59043,2.71221 0.85037,1.67811 2.6563,2.56473 4.66145,2.2885 0.96568,-0.13303 1.39459,-0.29882 2.1206,-0.8197 0.41753,-0.29957 0.69175,-0.44275 0.78207,-0.40833 0.0765,0.0291 0.29141,0.22578 0.47759,0.43698 l 0.3385,0.38398 -0.53028,0.48772 c -0.60579,0.55718 -1.50458,1.03327 -2.30572,1.22137 -0.69964,0.16426 -2.17761,0.23109 -2.83331,0.12812 z m -21.678406,-6.49435 2.56408,-6.4135 h 0.86456 0.86456 l 2.565676,6.4135 2.56567,6.4135 h -0.78296 c -0.64544,0 -0.8071,-0.0267 -0.92041,-0.15188 -0.0756,-0.0835 -0.41777,-0.87411 -0.76039,-1.75683 l -0.62294,-1.60496 h -2.911696 -2.91171 l -0.6203,1.60867 c -0.35621,0.92379 -0.69485,1.67174 -0.79541,1.75683 -0.13778,0.11658 -0.33368,0.14817 -0.91896,0.14817 h -0.74385 z m 4.859486,-0.93134 c -0.553676,-1.43192 -1.087556,-2.85115 -1.186376,-3.15383 -0.0988,-0.30268 -0.20792,-0.58138 -0.24243,-0.61933 -0.0345,-0.0379 -0.10885,0.11445 -0.16519,0.33867 -0.086,0.34221 -2.14605,5.78171 -2.26268,5.97449 -0.0211,0.0349 1.06449,0.0635 2.41248,0.0635 h 2.450896 z m 30.06617,7.28134 c -4e-5,-0.0349 1.14735,-2.93181 2.54974,-6.43752 l 2.54981,-6.37403 0.85398,0.024 0.85398,0.024 2.55703,6.39233 2.55703,6.39233 -0.72104,0.0246 c -0.51528,0.0176 -0.77266,-0.01 -0.90192,-0.0954 -0.12095,-0.0803 -0.3612,-0.59334 -0.72512,-1.5486 -0.29933,-0.78572 -0.59584,-1.53386 -0.65891,-1.66253 l -0.11468,-0.23394 -2.88737,0.0223 -2.88736,0.0223 -0.61652,1.59423 c -0.33909,0.87682 -0.68274,1.6674 -0.76368,1.75683 -0.124,0.13702 -0.26501,0.16261 -0.89603,0.16261 -0.41189,0 -0.74891,-0.0286 -0.74894,-0.0635 z m 8.30446,-4.86834 c -1.67177,-4.33865 -2.20119,-5.74413 -2.24872,-5.96974 -0.0735,-0.34909 -0.16767,-0.29267 -0.28427,0.17043 -0.0503,0.19968 -0.56932,1.59848 -1.15342,3.10843 -0.58409,1.50995 -1.06199,2.77597 -1.06199,2.81338 0,0.0374 1.08491,0.068 2.4109,0.068 h 2.41091 z m 11.93093,-1.50601 v -6.45081 l 2.89984,0.0388 c 3.3264,0.0446 3.67118,0.0941 4.96214,0.71362 2.29066,1.09918 3.54612,3.65352 3.22797,6.56755 -0.29434,2.69593 -1.81772,4.57383 -4.31893,5.32402 -0.59367,0.17807 -0.82193,0.19186 -3.70185,0.22368 l -3.06917,0.0339 z m 5.94137,4.96048 c 1.29605,-0.27468 2.29823,-1.04189 2.86634,-2.1943 0.47707,-0.96772 0.61606,-1.70932 0.56545,-3.017 -0.097,-2.50667 -1.20756,-4.08274 -3.25203,-4.61526 -0.36163,-0.0942 -0.9827,-0.12607 -2.45592,-0.12607 h -1.97187 v 5.03766 5.03767 l 1.8415,-0.001 c 1.25941,-0.001 2.0201,-0.0393 2.40653,-0.12123 z m 14.29397,-4.9573 v -6.43467 h 3.937 3.937 v 0.71967 0.71967 h -3.09034 -3.09033 v 2.159 2.159 h 2.49767 2.49766 v 0.635 0.635 h -2.49766 -2.49767 v 2.24366 2.24367 h 3.09033 3.09034 v 0.67733 0.67734 h -3.937 -3.937 z m 17.03863,0.0212 0.0217,-6.4135 h 0.78102 c 0.67146,0 0.80337,0.0238 0.94037,0.16933 0.19316,0.20527 4.67718,8.24782 4.8543,8.7067 l 0.12533,0.3247 0.38731,-0.79037 c 0.21303,-0.4347 1.31978,-2.48519 2.45945,-4.55664 1.65131,-3.00138 2.11304,-3.77775 2.27351,-3.82273 0.11076,-0.031 0.49665,-0.0602 0.85755,-0.0649 l 0.65616,-0.008 v 6.43467 6.43467 h -0.71901 -0.71901 l -0.0218,-5.14198 -0.0218,-5.14197 -2.14966,3.93547 c -1.18231,2.16451 -2.24152,4.0593 -2.35381,4.21064 -0.18242,0.24588 -0.24875,0.27517 -0.62318,0.27517 -0.2922,0 -0.46387,-0.0461 -0.56719,-0.15241 -0.0815,-0.0838 -1.15782,-1.96882 -2.39183,-4.18886 -1.23402,-2.22004 -2.26272,-4.03741 -2.286,-4.0386 -0.0233,-0.001 -0.0319,2.30289 -0.0192,5.12018 l 0.0231,5.12236 h -0.76445 -0.76446 z m 26.39537,3.87969 v -2.5338 l -2.24677,-3.7429 c -1.23573,-2.0586 -2.28679,-3.81766 -2.33569,-3.90903 -0.086,-0.16076 -0.0614,-0.16518 0.76293,-0.13679 0.71614,0.0246 0.87826,0.0563 1.01775,0.19866 0.22179,0.22634 3.19805,5.37128 3.46695,5.99316 l 0.2118,0.48982 0.26628,-0.57449 c 0.39057,-0.84268 3.22792,-5.72671 3.43687,-5.91602 0.14509,-0.13145 0.33766,-0.16732 1.02666,-0.19122 0.46644,-0.0162 0.82844,0.003 0.80444,0.0423 -0.024,0.0395 -1.09534,1.81555 -2.38076,3.94687 l -2.33713,3.87511 v 2.49605 2.49606 h -0.84666 -0.84667 z M 36.913436,176.29602 c -5.576515,-0.85173 -10.422125,-3.34795 -14.31327,-7.37347 -1.812776,-1.87538 -3.192642,-3.84984 -4.402343,-6.29933 -1.545545,-3.12955 -2.399247,-6.39603 -2.55023,-9.75784 l -0.05418,-1.2065 h 0.76621 c 3.505938,0 7.923131,1.20729 11.291004,3.08602 2.162711,1.20645 3.711454,2.39036 5.585986,4.27013 2.037659,2.04335 3.661987,4.29806 4.785865,6.6432 l 0.287963,0.60088 v 5.10355 5.10356 l -0.1905,-0.008 c -0.104775,-0.004 -0.6477,-0.0773 -1.2065,-0.16269 z M 159.37998,160.1425 c -1.43055,-1.44485 -5.2114,-5.07359 -10.07255,-9.66733 -7.27126,-6.87125 -10.65196,-10.1844 -11.62151,-11.38929 -0.37471,-0.46567 -0.70376,-0.87335 -0.73122,-0.90596 -0.0275,-0.0326 -0.0392,4.89182 -0.026,10.94317 l 0.0239,11.00246 h -2.75438 -2.75438 v -17.33471 -17.33471 l 1.67217,1.65409 c 2.22011,2.19611 2.66112,2.61116 7.59883,7.15147 2.32833,2.14094 4.86198,4.48378 5.63033,5.20631 0.76835,0.72253 2.29235,2.14789 3.38667,3.16748 3.23312,3.01233 4.52963,4.32478 5.09439,5.15703 0.27916,0.41138 0.52663,0.72891 0.54992,0.70561 0.0233,-0.0233 0.001,-0.45222 -0.0493,-0.95317 -0.06,-0.5965 -0.0917,-4.30959 -0.0917,-10.75977 v -9.84897 h 2.75167 2.75167 v 17.272 c 0,9.4996 -0.01,17.27011 -0.0212,17.26779 -0.0116,-0.002 -0.61342,-0.60239 -1.33729,-1.3335 z M 82.337104,143.53197 V 126.9255 l 5.69383,0.0311 c 5.49732,0.03 5.73037,0.0378 6.75217,0.22492 2.92696,0.536 4.8992,1.64378 6.092056,3.42182 1.24612,1.85742 1.62524,5.06536 0.92744,7.84754 -0.52475,2.09223 -2.079736,3.91552 -3.912086,4.58708 -0.27001,0.099 -0.46051,0.2058 -0.42334,0.23743 0.0372,0.0316 0.31485,0.1238 0.61706,0.20483 3.759196,1.00794 5.863586,4.05873 5.644176,8.18248 -0.12296,2.31096 -0.9539,4.15346 -2.54414,5.64131 -1.474756,1.37979 -3.314096,2.1858 -5.977836,2.61953 -0.76158,0.124 -1.74755,0.14978 -6.87916,0.17983 l -5.99017,0.0351 z m 10.71467,11.51946 c 1.6608,-0.16081 3.11148,-0.73334 3.95059,-1.55915 1.13533,-1.11734 1.55587,-3.05868 1.00667,-4.64713 -0.42454,-1.22793 -1.53453,-2.20876 -3.08382,-2.72501 -0.96403,-0.32123 -1.89008,-0.40741 -4.50244,-0.419 l -2.54,-0.0113 -0.0219,4.72017 -0.0219,4.72016 2.22321,-0.002 c 1.22276,-0.001 2.56806,-0.0357 2.98955,-0.0765 z m 0.35637,-14.18802 c 1.988,-0.46872 3.23415,-2.22976 3.23491,-4.57153 5.7e-4,-1.77926 -0.74111,-3.08241 -2.14231,-3.76407 -1.02708,-0.49966 -1.30334,-0.53844 -4.09914,-0.57545 l -2.56117,-0.0339 v 4.5362 4.53621 l 2.51884,-0.001 c 1.92132,-9.6e-4 2.64456,-0.0309 3.04887,-0.12622 z m 20.424956,2.66747 v -16.59467 h 2.794 2.794 v 16.59467 16.59467 h -2.794 -2.794 z m 55.47128,15.98084 c 1.71128,-4.02364 6.07039,-14.21016 7.18287,-16.78517 1.35664,-3.14019 7.11973,-16.61322 7.29756,-17.06034 0.0811,-0.20394 0.0919,-0.19467 0.29439,0.254 0.51576,1.14256 13.5652,31.5715 14.55093,33.93017 l 0.115,0.27517 -2.72618,-1.5e-4 -2.72618,-1.4e-4 -1.03685,-2.47636 c -0.57028,-1.36199 -1.39223,-3.3336 -1.82658,-4.38135 l -0.78972,-1.905 h -5.74594 -5.74594 l -1.82477,4.3815 -1.82476,4.3815 h -2.72745 -2.72744 z m 18.35806,-12.83105 c 0,-0.0371 -0.7645,-1.91358 -1.6989,-4.16983 -0.93439,-2.25626 -1.78961,-4.40709 -1.90049,-4.77963 -0.11088,-0.37253 -0.20363,-0.65371 -0.20611,-0.62484 -0.0363,0.42301 -0.81294,2.46259 -2.14718,5.63897 -0.90412,2.1524 -1.62373,3.93357 -1.59914,3.95816 0.0733,0.0733 7.55182,0.0506 7.55182,-0.0228 z m 19.38867,-3.15464 v -16.59951 l 5.73616,0.0303 c 5.53477,0.0292 5.77035,0.037 6.70984,0.22054 3.75979,0.73459 6.3681,2.50817 7.80336,5.30609 0.73569,1.43417 1.06495,2.74763 1.14572,4.57043 0.11194,2.52609 -0.49768,5.04548 -1.68695,6.97179 -0.53363,0.86433 -1.89665,2.27839 -2.66823,2.76813 -0.29063,0.18448 -0.52876,0.36814 -0.52916,0.40813 -8.6e-4,0.084 2.88591,4.68867 5.9789,9.53695 l 2.13353,3.34434 -3.23085,0.0222 c -1.77697,0.0122 -3.2729,0.006 -3.3243,-0.0137 -0.0514,-0.0197 -0.94392,-1.3632 -1.98341,-2.98552 -2.65328,-4.14098 -4.42815,-6.88879 -5.00878,-7.75451 l -0.49687,-0.74083 h -2.53781 -2.53782 v 5.75733 5.75734 h -2.75167 -2.75166 z m 11.938,-0.28424 c 0.91285,-0.29514 1.62223,-0.73279 2.33833,-1.44261 1.05178,-1.04255 1.51118,-2.1058 1.61133,-3.7293 0.0546,-0.88562 -0.15369,-2.06929 -0.49917,-2.83633 -0.47682,-1.05862 -1.40081,-2.00396 -2.47612,-2.53334 -1.04471,-0.51431 -1.25115,-0.54104 -4.46687,-0.57848 l -2.94217,-0.0343 v 5.68599 5.686 l 2.9845,-0.0336 c 2.56777,-0.0289 3.04952,-0.0546 3.45017,-0.18412 z M 40.596437,146.4197 v -9.32349 h 0.924408 c 0.508425,0 0.984675,-0.0231 1.058334,-0.0514 0.121012,-0.0464 0.133924,0.35355 0.133924,4.14867 0,2.31003 0.02858,4.19832 0.0635,4.19619 0.03492,-0.002 0.243364,-0.3736 0.463198,-0.8255 2.241064,-4.60681 6.294209,-8.69155 10.963777,-11.04926 3.348493,-1.69068 6.497582,-2.5231 10.33202,-2.73113 l 1.036826,-0.0562 -0.03915,0.36917 c -0.02153,0.20304 -0.05977,0.81905 -0.08498,1.36891 -0.15803,3.44752 -1.351319,7.42816 -3.184179,10.62198 -3.588733,6.25347 -9.543996,10.59435 -16.569433,12.07768 -1.173303,0.24773 -2.673777,0.43806 -4.103409,0.52052 l -0.994833,0.0574 z m -2.582334,9.1523 c -1.345443,-0.12647 -3.409,-0.53952 -4.732649,-0.94731 -3.987175,-1.22837 -7.393251,-3.27904 -10.338854,-6.22464 -1.971254,-1.97125 -3.505184,-4.10768 -4.735591,-6.59563 -1.546734,-3.12759 -2.415225,-6.45579 -2.559748,-9.80937 l -0.05382,-1.24884 0.288329,2.1e-4 c 0.581576,4.1e-4 2.588046,0.17736 3.416056,0.30126 2.845682,0.42581 5.959516,1.48736 8.429865,2.87386 2.001183,1.12319 3.833513,2.51776 5.503899,4.18899 1.828114,1.82903 3.353706,3.91227 4.509496,6.15786 l 0.570666,1.10876 -0.02182,5.10936 -0.02183,5.10937 z m -1.100667,-20.89505 c -2.716575,-0.41661 -5.062866,-1.16054 -7.493,-2.37578 -5.967441,-2.98414 -10.423118,-8.1197 -12.540677,-14.45424 -0.74907,-2.24079 -1.25999,-5.15572 -1.25999,-7.18857 v -0.68124 l 1.164166,0.0574 c 8.866591,0.43729 16.908505,5.59386 20.919345,13.41371 l 0.607156,1.18377 v 5.0891 5.0891 l -0.3175,-0.008 c -0.174625,-0.005 -0.6604,-0.0608 -1.0795,-0.12506 z m 3.683001,-7.25813 v -7.39139 l -0.398195,-0.54611 c -3.872204,-5.31056 -5.460657,-11.84741 -4.423593,-18.20411 0.722833,-4.430617 2.5899,-8.615907 5.523554,-12.381797 l 0.382596,-0.49113 0.737484,0.98187 c 2.775607,3.6954 4.52651,7.81075 5.223361,12.277057 0.250104,1.60299 0.270806,5.13349 0.03922,6.68867 -0.599195,4.02383 -2.041498,7.60399 -4.411167,10.94965 l -0.559293,0.78964 0.02252,2.30069 0.02252,2.30069 0.556039,-1.05834 c 1.857705,-3.53584 4.259271,-6.38419 7.303041,-8.66167 4.004901,-2.99664 8.768262,-4.69903 13.826931,-4.94164 l 1.12522,-0.054 -0.03576,0.28814 c -0.01967,0.15848 -0.05587,0.78344 -0.08044,1.38881 -0.193657,4.77106 -2.190321,9.97154 -5.347368,13.92767 -0.740203,0.92755 -2.833867,3.02085 -3.758662,3.75799 -3.099745,2.4708 -6.730982,4.17214 -10.583333,4.95862 -1.504333,0.30712 -3.239277,0.51181 -4.339167,0.51195 l -0.8255,1e-4 z"
       id="path1" /></g></svg>
