<?xml version="1.0" encoding="UTF-8" standalone="no"?>
<!-- Created with Inkscape (http://www.inkscape.org/) -->

<svg
   width="317.45288mm"
   height="66.807327mm"
   viewBox="0 0 317.45288 66.807327"
   version="1.1"
   id="svg1"
   xml:space="preserve"
   inkscape:version="1.3.2 (091e20e, 2023-11-25, custom)"
   sodipodi:docname="codeacademy.svg"
   xmlns:inkscape="http://www.inkscape.org/namespaces/inkscape"
   xmlns:sodipodi="http://sodipodi.sourceforge.net/DTD/sodipodi-0.dtd"
   xmlns="http://www.w3.org/2000/svg"
   xmlns:svg="http://www.w3.org/2000/svg"><sodipodi:namedview
     id="namedview1"
     pagecolor="#ffffff"
     bordercolor="#000000"
     borderopacity="0.25"
     inkscape:showpageshadow="2"
     inkscape:pageopacity="0.0"
     inkscape:pagecheckerboard="0"
     inkscape:deskcolor="#d1d1d1"
     inkscape:document-units="mm"
     inkscape:export-bgcolor="#ffffff00"
     inkscape:zoom="0.69219276"
     inkscape:cx="482.52455"
     inkscape:cy="-146.63545"
     inkscape:window-width="1920"
     inkscape:window-height="991"
     inkscape:window-x="-9"
     inkscape:window-y="-9"
     inkscape:window-maximized="1"
     inkscape:current-layer="layer1" /><defs
     id="defs1" /><g
     inkscape:label="Layer 1"
     inkscape:groupmode="layer"
     id="layer1"
     transform="translate(105.58918,-333.17858)"><text
       xml:space="preserve"
       style="font-size:4.58611px;white-space:pre;inline-size:12.9248;display:inline;fill:#000000;stroke:none;stroke-width:900;stroke-dasharray:none;stroke-opacity:1;paint-order:normal"
       x="63.260616"
       y="26.947876"
       id="text1"><tspan
         x="63.260616"
         y="26.947876"
         id="tspan4"><tspan
           dx="0 2.9021478 2.9021478 2.9021482 2.9021473"
           id="tspan3">huhuh</tspan></tspan></text><text
       xml:space="preserve"
       style="font-style:normal;font-variant:normal;font-weight:normal;font-stretch:normal;font-size:14.1111px;font-family:Candara;-inkscape-font-specification:Candara;fill:#000000;stroke:none;stroke-width:899.999;stroke-dasharray:none;stroke-opacity:1;paint-order:normal"
       x="82.372589"
       y="25.992279"
       id="text2"><tspan
         sodipodi:role="line"
         id="tspan2"
         style="font-style:normal;font-variant:normal;font-weight:normal;font-stretch:normal;font-size:14.1111px;font-family:Candara;-inkscape-font-specification:Candara;stroke-width:900"
         x="82.372589"
         y="25.992279" /></text><path
       style="fill:#204156;fill-opacity:1"
       d="m -105.51404,399.65566 c -0.0694,-0.18219 -0.0955,-15.21406 -0.058,-33.40417 l 0.0681,-33.07291 h 66.145831 66.145833 v 33.3375 33.3375 l -66.08779,0.0667 c -52.731335,0.0532 -66.113274,-2.8e-4 -66.213894,-0.26458 z M 20.437645,366.51608 v -26.9875 h -59.795834 -59.795832 l -0.0682,26.72291 c -0.0375,14.69761 -0.0114,26.87201 0.0581,27.05422 0.10071,0.26428 12.21282,0.31781 59.864026,0.26459 l 59.73777,-0.0667 z m -105.304166,19.86729 c -4.31943,-1.07204 -7.2336,-4.20812 -8.21553,-8.84114 -0.49102,-2.31673 -0.48607,-8.1171 0.009,-10.45328 0.83215,-3.92747 2.66147,-6.45145 5.77651,-7.97008 3.83192,-1.86812 9.13991,-1.67891 12.58753,0.4487 1.4535,0.89698 2.94142,2.3285 2.92291,2.81211 -0.0143,0.37323 -3.3152,3.47205 -3.92293,3.68275 -0.1198,0.0415 -0.62188,-0.30382 -1.11574,-0.76746 -2.61129,-2.45154 -6.9093,-2.41829 -8.76723,0.0678 -1.17116,1.56713 -1.3911,2.6907 -1.3911,7.1064 0,3.96439 0.0249,4.15175 0.74724,5.62275 0.5537,1.12758 1.03339,1.68939 1.85208,2.16914 2.36291,1.38466 5.1211,1.11794 7.17991,-0.6943 0.66014,-0.58108 1.3159,-1.01677 1.45723,-0.9682 0.56733,0.19499 3.97708,3.2694 3.97708,3.58596 0,0.52445 -1.91895,2.26378 -3.36722,3.05203 -2.64934,1.44194 -6.64354,1.91272 -9.72965,1.14679 z m 26.131453,-0.0346 c -3.12287,-0.84103 -5.73367,-2.89828 -7.037303,-5.54524 -1.234921,-2.50745 -1.568424,-4.66458 -1.437232,-9.29617 0.135763,-4.79294 0.589803,-6.66482 2.190583,-9.03118 3.714718,-5.49129 13.250521,-6.29331 18.330374,-1.5417 1.458651,1.3644 2.478123,3.21611 3.145792,5.71384 0.648871,2.4274 0.639537,8.97672 -0.01619,11.35819 -1.23862,4.49845 -3.90482,7.29282 -7.959423,8.34206 -1.935199,0.50079 -5.357486,0.50088 -7.216603,2e-4 z m 5.248335,-5.44949 c 2.498735,-0.83661 3.579789,-2.52015 4.001357,-6.23136 0.498105,-4.38498 -0.2673,-8.21831 -1.955362,-9.79291 -2.06952,-1.93042 -5.723189,-1.84097 -7.658203,0.18748 -1.458604,1.52903 -1.911533,3.55686 -1.782292,7.97956 0.09408,3.21935 0.170159,3.67714 0.837997,5.04215 1.232819,2.51979 3.951753,3.68718 6.556503,2.81508 z m 22.40364,5.466 c -3.480636,-0.95809 -5.52895,-3.2625 -6.724294,-7.56502 -0.373593,-1.34471 -0.472178,-2.69823 -0.470768,-6.4634 0.0026,-6.82429 0.790239,-9.56363 3.471005,-12.07118 1.866179,-1.74559 3.698779,-2.36293 7.553649,-2.54457 l 3.108854,-0.14649 v 2.94935 2.94935 h -1.796021 c -3.025689,0 -4.869232,1.32687 -5.66155,4.07486 -0.438252,1.51998 -0.425033,7.63187 0.02029,9.38328 0.751735,2.95648 3.384143,4.56685 6.511234,3.98324 1.516729,-0.28307 2.394905,-0.84949 3.23838,-2.08875 1.194473,-1.75497 1.220484,-2.09255 1.325224,-17.1994 0.07447,-10.74153 0.179966,-14.46537 0.414002,-14.61418 0.419018,-0.26644 4.986565,-0.25684 5.409021,0.0114 0.262972,0.16696 0.318272,4.27216 0.264583,19.64126 l -0.06788,19.43019 h -2.910417 -2.910417 l -0.08064,-1.25677 c -0.04435,-0.69122 -0.114271,-1.25677 -0.155372,-1.25677 -0.0411,0 -0.570336,0.47146 -1.176077,1.04769 -1.967898,1.87201 -6.091167,2.6365 -9.362813,1.73594 z m 30.67116873,0.10151 c -5.78754703,-1.362 -8.91605603,-6.35432 -8.91605603,-14.22779 0,-9.40954 4.14136,-14.34493 12.053234,-14.3642 2.649897,-0.006 4.098226,0.30039 6.024016,1.27626 3.9944993,2.02417 5.9291443,5.90709 6.0685923,12.17996 l 0.06353,2.85792 -7.4744793,0.0703 -7.47447997,0.0703 v -2.38538 -2.38537 H 4.1740707 c 4.834542,0 4.743856,0.046 4.218885,-2.14228 -1.30372,-5.43451 -9.574283,-5.69685 -11.124745,-0.35287 -0.248242,0.85562 -0.378486,2.58121 -0.378486,5.01453 0,3.65814 0.01203,3.73397 0.860252,5.42396 1.0371,2.06631 2.22097603,3.02979 4.23715,3.44835 2.578272,0.53524 5.292077,-0.1415 7.46327,-1.86111 0.5550753,-0.43963 1.1111563,-0.79613 1.2357363,-0.79222 0.12458,0.004 1.046821,0.75279 2.049425,1.66417 2.079963,1.89072 2.080044,1.96558 0.004,3.62039 -1.665074,1.3272 -3.6762473,2.30151 -5.7155613,2.76888 -1.911609,0.43811 -5.809298,0.49905 -7.43587997,0.11626 z M 32.123408,399.80943 c -0.09701,-0.097 -0.176389,-1.52716 -0.176389,-3.17811 v -3.00172 l 10.252605,0.0693 10.252604,0.0693 0.07757,2.51354 c 0.04266,1.38245 0.01063,2.78143 -0.07119,3.10885 l -0.148755,0.59532 H 42.304826 c -5.502766,0 -10.084404,-0.0794 -10.181418,-0.17639 z m 158.044442,-6.00971 v -2.80969 l 1.12448,-0.006 c 0.61847,-0.003 1.61478,-0.22846 2.21403,-0.50059 0.89085,-0.40455 1.23949,-0.79484 1.91173,-2.1401 0.4522,-0.90493 0.89218,-2.01912 0.97774,-2.47597 0.12436,-0.66405 -0.85609,-3.46987 -4.88829,-13.98916 -2.77412,-7.23719 -5.04385,-13.22008 -5.04385,-13.29532 0,-0.0752 1.47663,-0.1368 3.28141,-0.1368 h 3.2814 l 0.31053,0.8599 c 0.17079,0.47294 1.61308,4.66187 3.2051,9.30873 1.59201,4.64686 2.9438,8.49807 3.00398,8.55824 0.0602,0.0602 1.49253,-4.12875 3.183,-9.30873 l 3.07359,-9.41814 h 3.03049 c 2.9575,0 3.0305,0.0142 3.0305,0.58951 0,0.82281 -10.40172,29.49695 -11.64008,32.0879 -1.08602,2.27219 -2.64045,4.04488 -4.21058,4.80178 -0.61102,0.29455 -1.82429,0.49846 -3.39778,0.57104 l -2.4474,0.11289 z M 39.950844,386.34788 c -4.224729,-1.13762 -7.153731,-4.4044 -8.054964,-8.98389 -0.418006,-2.12404 -0.403509,-8.34206 0.02406,-10.31875 1.13516,-5.24798 4.715567,-8.54468 9.882812,-9.09973 4.204533,-0.45163 8.056777,0.75056 10.517187,3.28216 l 1.190625,1.22507 -1.984375,1.82415 c -1.091406,1.00328 -2.085167,1.82824 -2.208358,1.83323 -0.12319,0.005 -0.763429,-0.46576 -1.422752,-1.04612 -3.029121,-2.66634 -7.3374,-1.9826 -9.149625,1.45208 -0.479147,0.90811 -0.573291,1.62673 -0.663283,5.06296 -0.120961,4.61869 0.227438,6.36881 1.572905,7.90121 2.011429,2.2909 6.56929,2.09983 8.803588,-0.36904 0.277039,-0.30613 0.634081,-0.55418 0.793428,-0.55124 0.159347,0.003 1.182691,0.82594 2.274097,1.82886 l 1.984375,1.82351 -0.990004,1.02433 c -1.349976,1.39678 -3.456134,2.62201 -5.349438,3.11195 -1.936547,0.50114 -5.357783,0.50079 -7.220275,-7.4e-4 z m 23.028107,0.025 c -4.071452,-1.27243 -6.150811,-4.40744 -5.820462,-8.77541 0.237293,-3.13756 1.652754,-5.43803 4.120636,-6.69705 1.52435,-0.77767 4.928816,-1.37649 7.320663,-1.28765 l 2.10869,0.0783 v 2.24895 2.24896 l -2.122756,0.1581 c -2.713506,0.2021 -3.911392,0.6057 -4.747752,1.59966 -0.84893,1.00889 -0.916483,2.86203 -0.150145,4.11887 1.444007,2.36827 7.796016,2.0146 9.652735,-0.53745 0.502022,-0.69002 0.549099,-1.18828 0.62498,-6.61458 0.04513,-3.22759 0.01201,-6.24446 -0.07362,-6.70415 -0.393173,-2.11088 -2.825557,-3.16218 -6.830052,-2.952 -1.85307,0.0973 -2.561658,0.26889 -3.967374,0.96092 -0.941255,0.46338 -1.822401,0.84251 -1.958102,0.84251 -0.260407,0 -2.46646,-3.78309 -2.46646,-4.22965 0,-0.43483 1.883618,-1.52187 3.661954,-2.11332 3.324302,-1.10563 9.284606,-1.15399 12.47763,-0.10125 1.010262,0.33308 1.872965,0.88601 2.821492,1.80835 2.288151,2.225 2.337883,2.54593 2.337883,15.08691 v 10.58333 l -2.844271,0.0751 -2.844271,0.0751 v -1.35436 -1.35435 l -1.229406,1.08217 c -1.629521,1.43436 -3.905969,2.14389 -6.80211,2.1201 -1.185218,-0.01 -2.656667,-0.1745 -3.269886,-0.36614 z m 28.839583,0 c -4.597649,-1.43688 -6.697588,-5.03565 -7.109462,-12.18387 -0.305149,-5.29596 0.659962,-10.39633 2.398562,-12.67579 1.144505,-1.50055 2.837936,-2.71953 4.438194,-3.19476 1.573164,-0.46718 6.139422,-0.82557 7.182624,-0.56375 l 0.705667,0.17711 -0.07532,2.70464 -0.07532,2.70464 -2.267464,0.15533 c -2.602014,0.17826 -3.624538,0.64937 -4.596188,2.11764 -0.975281,1.47375 -1.223926,2.82702 -1.222132,6.65159 0.002,4.29088 0.417763,5.95925 1.83925,7.38074 2.34262,2.34262 6.839219,1.80805 8.408925,-0.99967 1.03689,-1.85468 1.1449,-3.53765 1.1449,-17.83946 0,-12.2316 0.0443,-13.69845 0.41851,-13.84203 0.86553,-0.33214 5.32609,-0.17438 5.63625,0.19933 0.21727,0.26179 0.28021,5.61848 0.23083,19.64531 l -0.0679,19.28538 h -3.04271 -3.0427 l -0.0811,-1.26785 -0.0811,-1.26785 -1.2932,1.1627 c -0.9082,0.81655 -1.755675,1.29246 -2.846677,1.59857 -1.838558,0.51588 -5.037629,0.54109 -6.602464,0.0521 z m 30.483696,0.0105 c -4.27703,-1.06151 -6.9962,-3.90419 -8.24789,-8.6225 -0.54826,-2.0667 -0.64451,-8.39546 -0.15933,-10.47644 1.45873,-6.25661 5.39378,-9.42136 11.71451,-9.42136 3.90952,0 6.63538,1.08976 8.91089,3.56245 2.1787,2.36749 3.03574,5.06247 3.09134,9.72076 l 0.0363,3.04271 -7.34219,0.0703 -7.34218,0.0703 v -2.38543 -2.38544 h 4.27018 4.27019 l -0.15989,-1.35002 c -0.23892,-2.01727 -1.21914,-3.48911 -2.87235,-4.31294 -3.40699,-1.69778 -7.4704,-0.0905 -8.45504,3.34439 -0.50977,1.77833 -0.43884,7.44424 0.11596,9.26271 0.91743,3.00706 3.01323,4.52641 6.27053,4.54581 2.42439,0.0144 4.28697,-0.58111 5.75952,-1.84155 0.58931,-0.50443 1.17326,-0.91715 1.29767,-0.91715 0.39393,0 3.79073,3.20111 3.79073,3.57235 0,0.47084 -2.18926,2.32447 -3.74614,3.17184 -2.83135,1.54101 -7.94732,2.15712 -11.20282,1.34915 z m 20.42519,-0.32405 c -0.10151,-0.10151 -0.18457,-6.35975 -0.18457,-13.9072 V 358.4295 l 3.10886,0.0745 3.10885,0.0745 0.13229,1.14902 0.1323,1.14903 0.66145,-0.7122 c 1.5776,-1.69861 5.01447,-2.64047 8.10483,-2.2211 1.88351,0.2556 4.0733,1.33069 5.10591,2.50676 l 0.81151,0.92426 1.40146,-1.05811 c 1.8882,-1.42561 3.5035,-2.10116 5.66063,-2.36742 4.4062,-0.54386 7.96559,0.7999 9.97211,3.76473 1.68055,2.48319 1.75189,3.06855 1.75189,14.37555 v 10.13843 h -3.04271 -3.04271 l -0.002,-8.26822 c -8.4e-4,-4.54753 -0.11679,-8.97204 -0.25766,-9.83225 -0.48254,-2.94663 -2.32836,-4.63498 -5.0814,-4.64788 -2.21701,-0.0104 -3.79962,1.00333 -4.74113,3.0369 -0.44589,0.96307 -0.49088,1.868 -0.49985,10.05416 -0.005,4.94771 -0.10698,9.1489 -0.22568,9.33597 -0.15935,0.25115 -0.97161,0.32037 -3.1048,0.26458 l -2.88899,-0.0756 -0.13229,-9.26041 c -0.11636,-8.14495 -0.18928,-9.38674 -0.60541,-10.30907 -0.63504,-1.40758 -1.17766,-1.97635 -2.4373,-2.55478 -2.73424,-1.25557 -5.90314,-0.0139 -7.17077,2.80968 -0.13066,0.29104 -0.2971,4.75588 -0.36986,9.92187 l -0.13229,9.39271 -2.92429,0.0743 c -1.60836,0.0409 -3.00734,-0.009 -3.10885,-0.11024 z"
       id="path752" /></g></svg>
