<?xml version="1.0" encoding="UTF-8" standalone="no"?>
<!-- Created with Inkscape (http://www.inkscape.org/) -->

<svg
   width="583.70441mm"
   height="82.36657mm"
   viewBox="0 0 583.70441 82.366568"
   version="1.1"
   id="svg1"
   xml:space="preserve"
   inkscape:version="1.3.2 (091e20e, 2023-11-25, custom)"
   sodipodi:docname="coursera.svg"
   xmlns:inkscape="http://www.inkscape.org/namespaces/inkscape"
   xmlns:sodipodi="http://sodipodi.sourceforge.net/DTD/sodipodi-0.dtd"
   xmlns="http://www.w3.org/2000/svg"
   xmlns:svg="http://www.w3.org/2000/svg"><sodipodi:namedview
     id="namedview1"
     pagecolor="#ffffff"
     bordercolor="#000000"
     borderopacity="0.25"
     inkscape:showpageshadow="2"
     inkscape:pageopacity="0.0"
     inkscape:pagecheckerboard="0"
     inkscape:deskcolor="#d1d1d1"
     inkscape:document-units="mm"
     inkscape:export-bgcolor="#ffffff00"
     inkscape:zoom="0.2447271"
     inkscape:cx="1577.2671"
     inkscape:cy="169.57664"
     inkscape:window-width="1920"
     inkscape:window-height="991"
     inkscape:window-x="-9"
     inkscape:window-y="-9"
     inkscape:window-maximized="1"
     inkscape:current-layer="layer1" /><defs
     id="defs1" /><g
     inkscape:label="Layer 1"
     inkscape:groupmode="layer"
     id="layer1"
     transform="translate(235.0041,-241.48688)"><text
       xml:space="preserve"
       style="font-size:4.58611px;white-space:pre;inline-size:12.9248;fill:#000000;stroke:none;stroke-width:900;stroke-dasharray:none;stroke-opacity:1;paint-order:normal"
       x="63.260616"
       y="26.947876"
       id="text1"><tspan
         x="63.260616"
         y="26.947876"
         id="tspan4"><tspan
           dx="0 2.9021478 2.9021478 2.9021482 2.9021473"
           id="tspan3">huhuh</tspan></tspan></text><text
       xml:space="preserve"
       style="font-style:normal;font-variant:normal;font-weight:normal;font-stretch:normal;font-size:14.1111px;font-family:Candara;-inkscape-font-specification:Candara;fill:#000000;stroke:none;stroke-width:899.999;stroke-dasharray:none;stroke-opacity:1;paint-order:normal"
       x="82.372589"
       y="25.992279"
       id="text2"><tspan
         sodipodi:role="line"
         id="tspan2"
         style="font-style:normal;font-variant:normal;font-weight:normal;font-stretch:normal;font-size:14.1111px;font-family:Candara;-inkscape-font-specification:Candara;stroke-width:900"
         x="82.372589"
         y="25.992279" /></text><path
       style="fill:#0056d2;fill-opacity:1"
       d="m -38.914138,323.54398 c -11.364252,-1.47754 -20.16439,-9.32562 -23.312647,-20.79055 -1.364502,-4.96907 -1.470154,-7.39204 -1.470154,-33.71581 v -25.55086 h 10.054167 10.054167 v 24.14791 c 0,16.26648 0.12724,24.75807 0.389849,26.01737 1.52192,7.29807 7.033341,11.57083 14.925198,11.57083 8.511936,0 14.299031,-4.231 16.64708,-12.17083 0.566055,-1.91409 0.63825,-4.38719 0.754361,-25.84097 l 0.128398,-23.72431 H -0.70782827 9.3280617 v 39.15833 39.15834 H -0.72610427 -10.780271 v -4.40972 c 0,-2.42535 -0.119063,-4.40864 -0.264584,-4.40732 -0.14552,0.001 -0.645693,0.562 -1.111494,1.24594 -1.396239,2.05012 -4.69226,4.86625 -7.298285,6.23568 -3.25134,1.70853 -6.889034,2.67994 -11.61036,3.10044 -4.318358,0.3846 -4.71227,0.38337 -7.849144,-0.0245 z m -161.307802,-0.84554 c -8.76443,-1.44011 -16.51602,-5.40329 -22.80581,-11.66002 -6.93135,-6.89492 -10.84913,-15.2451 -11.79487,-25.13909 -1.12991,-11.82062 3.04697,-23.20787 11.67447,-31.8276 5.93763,-5.93227 13.03745,-9.68607 21.69149,-11.46867 3.33001,-0.68593 11.19718,-0.80024 14.69259,-0.21349 10.44403,1.75319 19.79139,7.18283 26.16056,15.19599 l 2.09322,2.63352 -0.79453,0.54148 c -0.43699,0.29781 -4.28568,2.55684 -8.55264,5.02006 l -7.75811,4.47858 -1.18627,-1.41987 c -3.95881,-4.73839 -10.35398,-7.71368 -16.58,-7.71368 -3.63215,0 -5.83165,0.53503 -9.56705,2.32719 -7.85337,3.76787 -13.03402,12.40539 -12.25178,20.42698 1.05978,10.86764 9.46364,19.13059 20.44679,20.10396 5.54857,0.49173 12.01173,-1.85845 16.09958,-5.85424 1.26898,-1.2404 2.6107,-2.67118 2.98161,-3.1795 l 0.67437,-0.92423 8.04657,4.8433 c 4.42562,2.66382 8.19941,4.99613 8.3862,5.18293 0.90098,0.90098 -6.82063,9.01457 -11.66867,12.26103 -3.40499,2.28013 -8.48877,4.52579 -12.87799,5.6886 -4.38879,1.16269 -12.31075,1.48531 -17.10973,0.69677 z m 82.02083,0.29485 c -2.81978,-0.42536 -8.65031,-2.07618 -11.23055,-3.17975 -3.30752,-1.41463 -8.66423,-4.88797 -11.59084,-7.51563 -9.17809,-8.24053 -14.25698,-21.25823 -13.02707,-33.38968 0.67593,-6.66712 3.13733,-13.52942 6.77324,-18.88353 4.61748,-6.79954 12.76548,-13.00766 20.43217,-15.56766 5.57622,-1.86197 7.86811,-2.20692 14.46389,-2.17695 5.71914,0.026 6.47628,0.10797 10.28512,1.1138 7.531248,1.98882 14.089142,5.72994 19.348211,11.03767 12.373408,12.48791 15.207629,31.48379 6.999172,46.91076 -4.148126,7.79598 -11.874759,14.85646 -20.173519,18.43425 -5.265024,2.26987 -9.422254,3.13085 -15.753434,3.26259 -3.00743,0.0626 -5.9443,0.0419 -6.52639,-0.0459 z m 12.33875,-20.1686 c 6.387804,-2.09539 11.773493,-7.33873 13.943157,-13.57461 0.963913,-2.77041 1.297478,-7.60253 0.729087,-10.56178 -1.185376,-6.17151 -5.87006,-12.18569 -11.665154,-14.97569 -3.76392,-1.81211 -6.07847,-2.36666 -9.87778,-2.36666 -7.84464,0 -14.6774,3.95746 -18.89055,10.94121 -1.96669,3.26 -2.78574,6.38766 -2.75866,10.53432 0.0366,5.6026 1.82309,9.86588 5.97235,14.25225 5.98203,6.32388 14.31879,8.45025 22.54755,5.75096 z m 194.863586,19.98797 c -8.67446,-0.99448 -16.95422,-4.76901 -21.65915,-9.87385 -2.46277,-2.67209 -5.74269,-7.85156 -5.18425,-8.18667 3.62475,-2.17507 17.47076,-9.08919 17.68078,-8.82904 0.13496,0.16717 0.84944,1.20922 1.58774,2.31567 3.33138,4.99259 8.53303,7.37887 16.09715,7.38463 4.280444,0.003 6.629584,-0.51304 8.559204,-1.88119 2.54434,-1.80401 2.69022,-5.31021 0.32501,-7.81206 -1.7924,-1.89595 -4.44284,-2.9516 -14.326984,-5.70628 -12.02241,-3.35061 -17.23584,-5.85246 -21.41865,-10.27849 -3.61057,-3.82051 -5.22925,-8.27954 -5.23101,-14.41001 -0.002,-5.83139 1.73197,-10.50635 5.36738,-14.47376 5.6371,-6.1519 14.2624,-9.40963 24.96017,-9.42731 11.225344,-0.0186 19.684884,3.15661 26.488754,9.94218 2.13553,2.12979 5.20814,6.2278 4.87376,6.50023 -0.0779,0.0635 -4.02607,2.14826 -8.77366,4.63283 l -8.63198,4.51739 -0.71411,-1.02217 c -1.45664,-2.085 -4.52841,-4.81348 -6.3665,-5.65499 -3.485374,-1.59565 -8.888224,-1.92649 -12.255634,-0.75045 -3.81253,1.3315 -5.17381,5.24924 -2.87597,8.277 1.2001,1.58132 5.1099,3.3906 10.5484,4.88131 15.599874,4.276 19.676274,5.9799 24.429104,10.21117 6.00047,5.342 8.22365,15.02579 5.38445,23.45381 -2.92406,8.67995 -11.81895,14.73061 -23.81633,16.20086 -3.64817,0.44707 -11.100474,0.44172 -15.047674,-0.0108 z m 80.359084,0.0352 c -15.53608,-2.43057 -28.05419,-12.67979 -32.90465,-26.94072 -1.44234,-4.24067 -2.01736,-8.10044 -2.0283,-13.61487 -0.0113,-5.68814 0.54019,-9.02138 2.33461,-14.11111 5.47369,-15.52567 19.0143,-25.3266 35.90221,-25.98665 12.03986,-0.47057 21.70004,3.15203 29.67466,11.1281 6.93951,6.94077 10.7063,15.29641 11.62008,25.77613 0.23169,2.6571 0.26969,5.41594 0.095,6.89769 l -0.29113,2.46945 -29.89792,0.0902 c -19.05064,0.0575 -29.89791,0.21454 -29.89791,0.43292 0,1.04471 1.98164,5.3369 3.34798,7.25165 4.18771,5.86855 10.26874,8.73421 18.52424,8.72948 6.89716,-0.004 12.83956,-2.15769 17.19796,-6.23316 2.00955,-1.87911 2.27814,-2.02719 2.82991,-1.56029 0.3353,0.28372 3.34807,2.70578 6.69505,5.38235 3.34698,2.67657 6.08541,4.96911 6.08541,5.09453 0,0.9933 -6.0025,6.75687 -9.15081,8.78655 -3.31128,2.13476 -8.8727,4.56061 -12.72141,5.549 -3.13278,0.80453 -4.60205,0.9691 -9.525,1.06687 -3.20146,0.0636 -6.75195,-0.0301 -7.88998,-0.2081 z m 24.47054,-49.15125 c 0,-1.37286 -2.33043,-5.57396 -4.08676,-7.36726 -3.65904,-3.73607 -8.17733,-5.60367 -14.1081,-5.83147 -4.43091,-0.1702 -6.96627,0.31909 -10.51684,2.02958 -4.43938,2.13868 -9.0274,7.15437 -10.2541,11.20995 l -0.24008,0.79375 h 19.60294 19.60294 z m 103.71666,48.97143 c -15.44345,-3.3025 -27.46467,-15.39278 -30.6838,-30.86004 -2.84297,-13.65995 0.8946,-27.23881 10.22269,-37.13975 6.23935,-6.6225 13.15857,-10.53254 21.38807,-12.08636 6.58455,-1.24323 16.20952,-0.011 21.37812,2.73692 2.35902,1.25419 5.99867,4.44077 7.36699,6.44995 0.46377,0.68097 0.93098,1.23921 1.03824,1.24054 0.10727,0.001 0.56702,-1.94228 1.02168,-4.31912 0.45466,-2.37684 0.89982,-4.51996 0.98924,-4.7625 0.12435,-0.33724 2.31139,-0.44097 9.29707,-0.44097 h 9.13448 v 39.16419 39.16419 l -9.23118,-0.094 -9.23118,-0.0941 -0.4494,-1.41111 c -0.24716,-0.77611 -0.78575,-2.57137 -1.19686,-3.98946 l -0.74748,-2.57834 -2.23088,2.08688 c -5.60629,5.24441 -12.08531,7.50953 -21.31379,7.45148 -2.45242,-0.0154 -5.49083,-0.2487 -6.75201,-0.5184 z m 15.66807,-19.43578 c 3.73959,-0.94663 6.82588,-2.78024 9.93969,-5.90528 4.57623,-4.59275 6.3823,-9.18881 6.04657,-15.38725 -0.23381,-4.31662 -1.2228,-7.38907 -3.45065,-10.71998 -5.61795,-8.39954 -15.7002,-11.92331 -25.1849,-8.80218 -2.85501,0.9395 -5.86169,2.90575 -8.50122,5.55946 -4.09472,4.11672 -6.20774,9.1352 -6.2502,14.8444 -0.0278,3.73539 0.53838,6.19831 2.12938,9.26327 1.7579,3.38647 4.10784,6.01207 7.27942,8.13335 5.38642,3.60266 11.57296,4.6391 17.99191,3.01421 z M 18.500285,282.64509 v -39.15833 h 10.043627 10.043626 l 0.09873,4.41697 0.09873,4.41697 1.549387,-1.98512 c 2.754607,-3.52929 7.428652,-6.44636 12.388292,-7.73153 1.72377,-0.44667 8.3675,-1.27914 8.6954,-1.08954 0.0304,0.0176 -0.77042,4.15947 -1.77963,9.20419 l -1.83493,9.17223 -2.82677,0.23585 c -8.89576,0.74221 -13.630034,4.51696 -15.670291,12.49429 -0.660583,2.58285 -0.697847,3.96883 -0.697847,25.95546 v 23.2269 H 28.554452 18.500285 Z m 204.258335,0 v -39.15833 h 10.05417 10.05417 v 4.39112 4.39111 l 3.0868,-3.11431 c 4.64245,-4.68382 9.54711,-6.84177 16.64022,-7.32138 2.77681,-0.18776 3.29343,-0.14283 3.14375,0.27342 -0.0985,0.27395 -0.95305,4.42716 -1.89898,9.22935 l -1.71987,8.73125 -1.95304,0.006 c -2.57438,0.008 -6.32891,0.82348 -8.61876,1.87181 -2.43629,1.11537 -5.19251,3.92554 -6.53848,6.66647 -2.08499,4.24589 -2.12878,4.86458 -2.13552,30.17296 l -0.006,23.01875 h -10.05429 -10.05417 z"
       id="path9" /></g></svg>
