<?xml version="1.0" encoding="UTF-8" standalone="no"?>
<!-- Created with Inkscape (http://www.inkscape.org/) -->

<svg
   width="97.293449mm"
   height="24.34166mm"
   viewBox="0 0 97.29345 24.341659"
   version="1.1"
   id="svg1"
   xml:space="preserve"
   xmlns:inkscape="http://www.inkscape.org/namespaces/inkscape"
   xmlns:sodipodi="http://sodipodi.sourceforge.net/DTD/sodipodi-0.dtd"
   xmlns="http://www.w3.org/2000/svg"
   xmlns:svg="http://www.w3.org/2000/svg"><sodipodi:namedview
     id="namedview1"
     pagecolor="#ffffff"
     bordercolor="#000000"
     borderopacity="0.25"
     inkscape:showpageshadow="2"
     inkscape:pageopacity="0.0"
     inkscape:pagecheckerboard="0"
     inkscape:deskcolor="#d1d1d1"
     inkscape:document-units="mm"
     inkscape:export-bgcolor="#ffffff00" /><defs
     id="defs1" /><g
     inkscape:label="Layer 1"
     inkscape:groupmode="layer"
     id="layer1"
     transform="translate(-51.370987,-103.48801)"><text
       xml:space="preserve"
       style="font-size:4.58611px;white-space:pre;inline-size:12.9248;fill:#000000;stroke:none;stroke-width:900;stroke-dasharray:none;stroke-opacity:1;paint-order:normal"
       x="63.260616"
       y="26.947876"
       id="text1"><tspan
         x="63.260616"
         y="26.947876"
         id="tspan4"><tspan
           dx="0 2.9021478 2.9021478 2.9021482 2.9021473"
           id="tspan3">huhuh</tspan></tspan></text><text
       xml:space="preserve"
       style="font-style:normal;font-variant:normal;font-weight:normal;font-stretch:normal;font-size:14.1111px;font-family:Candara;-inkscape-font-specification:Candara;fill:#000000;stroke:none;stroke-width:899.999;stroke-dasharray:none;stroke-opacity:1;paint-order:normal"
       x="82.372589"
       y="25.992279"
       id="text2"><tspan
         sodipodi:role="line"
         id="tspan2"
         style="font-style:normal;font-variant:normal;font-weight:normal;font-stretch:normal;font-size:14.1111px;font-family:Candara;-inkscape-font-specification:Candara;stroke-width:900"
         x="82.372589"
         y="25.992279" /></text><path
       style="fill:#2d3e50;fill-opacity:1"
       d="m 134.11236,115.65884 v -12.17083 h 7.27604 7.27604 v 12.17083 12.17083 h -7.27604 -7.27604 z m 10.44226,11.24409 c 1.24747,-0.60725 2.97074,-2.26601 3.32663,-3.20209 0.13971,-0.36746 0.25402,-2.72058 0.25402,-5.22915 0,-4.37143 -0.0283,-4.61793 -0.68203,-5.92969 -1.2002,-2.40849 -3.37055,-3.7507 -6.06484,-3.7507 -2.6943,0 -4.86465,1.34221 -6.06485,3.7507 -1.72661,3.46486 -0.0623,7.89418 3.53206,9.39985 1.38102,0.57852 3.90877,0.50842 5.39643,-0.14964 l 1.2374,-0.54736 v 0.74319 c 0,1.60783 -1.87972,2.99333 -4.10473,3.02549 -1.60955,0.0233 -2.89614,-0.64327 -3.78358,-1.96013 -0.33773,-0.50117 -0.78703,-1.00801 -0.99842,-1.12631 -0.53526,-0.29955 -1.37869,0.0169 -1.71375,0.64296 -0.56801,1.06134 1.50337,3.58569 3.78544,4.61323 1.20941,0.54456 4.50876,0.38726 5.88022,-0.28035 z m -5.35145,-8.06766 c -3.47628,-2.11951 -1.91612,-7.40976 2.18523,-7.40976 3.9231,0 5.55941,4.67251 2.52922,7.22225 -0.70563,0.59374 -1.10504,0.71508 -2.35109,0.71426 -1.03074,-6.8e-4 -1.77123,-0.16572 -2.36336,-0.52675 z m -62.51349,4.103 c -0.6593,-0.21034 -1.705203,-0.81595 -2.32423,-1.34581 -3.197914,-2.7373 -3.24581,-7.67869 -0.101257,-10.44664 2.696629,-2.37367 7.077862,-2.29735 9.008385,0.15691 1.15737,1.47136 -0.458343,2.59819 -2.074913,1.44709 -2.41269,-1.71798 -5.851224,-0.46235 -6.627386,2.4201 -0.402351,1.49422 -0.127576,2.69412 0.879649,3.84128 1.566125,1.78372 3.407073,2.1166 5.476509,0.99028 1.447645,-0.78791 2.367487,-0.75971 2.676719,0.0821 0.163569,0.44526 0.05826,0.77583 -0.433236,1.35994 -1.240102,1.47378 -4.319522,2.1841 -6.48024,1.49478 z m 12.653171,0.0571 c -2.964203,-0.98212 -4.702316,-3.40041 -4.702502,-6.54273 -8.4e-5,-1.42432 0.135303,-1.95589 0.788023,-3.09398 1.788929,-3.11921 5.605539,-4.32181 8.702179,-2.74202 2.38246,1.21544 3.72227,3.3637 3.72227,5.96829 0,2.59678 -1.34018,4.75304 -3.70353,5.95873 -1.28991,0.65807 -3.5442,0.86992 -4.80644,0.45171 z m 4.02637,-2.90471 c 1.46295,-0.99567 1.98168,-1.91335 1.98168,-3.50573 0,-4.16591 -5.58113,-5.70988 -7.68193,-2.12514 -1.309998,2.23534 -0.4149,4.94573 1.98449,6.00915 0.92939,0.41191 2.84062,0.21734 3.71576,-0.37828 z m 26.871409,2.82537 c -0.35318,-0.35318 -0.41577,-1.3063 -0.41577,-6.3311 0,-5.02479 0.0626,-5.97792 0.41577,-6.3311 0.22868,-0.22867 0.53416,-0.41577 0.67885,-0.41577 0.52179,0 1.28663,0.55602 1.28663,0.93535 0,0.49662 0.0601,0.4898 1.10935,-0.12586 2.98132,-1.74933 7.58336,-0.26452 9.26493,2.98925 0.47786,0.92464 0.58493,1.68061 0.68468,4.83401 0.11279,3.56573 0.0917,3.76446 -0.45681,4.31301 -0.59038,0.59038 -1.51556,0.55066 -1.933,-0.083 -0.10691,-0.16228 -0.19882,-1.78335 -0.20425,-3.60236 -0.008,-2.64437 -0.1085,-3.52448 -0.50197,-4.39088 -1.29719,-2.85629 -5.24787,-3.02533 -7.25883,-0.3106 -0.46346,0.62565 -0.54991,1.22842 -0.6451,4.49791 -0.0888,3.04997 -0.191,3.839 -0.5319,4.10618 -0.56295,0.4412 -0.9907,0.41683 -1.49258,-0.0851 z m -64.709514,-0.39875 c -4.506205,-2.03742 -5.561131,-7.40787 -2.129266,-10.83974 2.147767,-2.14777 5.56827,-2.72066 8.164451,-1.36746 l 1.108565,0.57782 v -2.73287 c 0,-2.42695 0.06126,-2.78831 0.547247,-3.22813 0.500065,-0.45255 0.608423,-0.46093 1.256771,-0.0972 l 0.709523,0.39807 0.07104,6.14733 c 0.06696,5.79417 0.03829,6.22344 -0.498952,7.4723 -0.687583,1.59833 -2.664547,3.46325 -4.139899,3.90528 -1.593088,0.4773 -3.73197,0.37837 -5.089476,-0.23541 z m 5.236493,-2.53977 c 2.585037,-1.91476 2.566376,-5.59527 -0.03653,-7.20395 -2.204532,-1.36247 -4.862383,-0.74996 -6.129748,1.41264 -1.300755,2.21957 -0.656635,4.60079 1.599064,5.91151 1.306254,0.75903 3.456613,0.70243 4.567211,-0.1202 z m 7.226362,2.7259 c -0.211811,-0.25522 -0.280714,-2.20133 -0.230834,-6.51979 0.07771,-6.72783 0.117566,-6.88827 1.617652,-6.51177 l 0.70241,0.17629 v 6.44894 c 0,5.63652 -0.05272,6.46918 -0.418515,6.60955 -0.687886,0.26396 -1.349806,0.18345 -1.670713,-0.20322 z m 34.765259,-0.25871 c -1.74118,-0.81254 -3.172069,-2.43077 -3.689229,-4.17223 -0.51425,-1.73167 -0.51369,-2.17446 0.005,-3.92097 1.153009,-3.88262 6.191199,-5.9494 9.851739,-4.04142 l 1.10856,0.57782 v -2.73287 c 0,-2.31155 0.0746,-2.80038 0.48386,-3.17076 0.62888,-0.56913 1.18075,-0.55441 1.72409,0.046 0.38082,0.42079 0.43755,1.27421 0.4353,6.54843 -0.002,5.80477 -0.0292,6.12169 -0.62331,7.39758 -0.73905,1.5871 -2.64147,3.34717 -4.0855,3.77981 -1.68172,0.50385 -3.72523,0.38174 -5.21048,-0.31137 z m 5.37752,-2.47371 c 1.26669,-0.93816 1.89862,-2.14492 1.89753,-3.62362 -10e-4,-1.60774 -0.61525,-2.75334 -1.9022,-3.54872 -2.2717,-1.40399 -4.89155,-0.79455 -6.2028,1.44294 -0.57045,0.9734 -0.66801,1.40845 -0.56237,2.50784 0.15698,1.63373 0.79983,2.55883 2.33385,3.35853 1.41398,0.73712 3.33594,0.67777 4.43599,-0.13697 z m 7.22884,2.74593 c -0.22606,-0.27239 -0.29337,-2.0893 -0.24205,-6.5333 0.0777,-6.73091 0.117,-6.88842 1.62227,-6.51062 l 0.70701,0.17745 -0.0708,6.54224 -0.0708,6.54224 -0.81628,0.0797 c -0.47123,0.046 -0.94866,-0.0798 -1.12944,-0.29767 z M 68.117723,108.3639 c -0.228676,-0.22868 -0.415774,-0.63689 -0.415774,-0.90714 0,-0.5253 0.659976,-1.32292 1.094626,-1.32292 0.708044,0 1.286624,0.5949 1.286624,1.32292 0,1.16261 -1.170006,1.70261 -1.965476,0.90714 z m 47.360407,0 c -0.56554,-0.56554 -0.52233,-1.25786 0.11447,-1.83416 0.78148,-0.70723 1.85101,-0.18024 1.85101,0.91204 0,1.17721 -1.1642,1.7234 -1.96548,0.92212 z"
       id="path9" /></g></svg>
