<?xml version="1.0" encoding="UTF-8" standalone="no"?>
<!-- Created with Inkscape (http://www.inkscape.org/) -->

<svg
   width="237.97406mm"
   height="26.947523mm"
   viewBox="0 0 237.97406 26.947523"
   version="1.1"
   id="svg1"
   xml:space="preserve"
   inkscape:version="1.3.2 (091e20e, 2023-11-25, custom)"
   sodipodi:docname="freecodecamp.svg"
   xmlns:inkscape="http://www.inkscape.org/namespaces/inkscape"
   xmlns:sodipodi="http://sodipodi.sourceforge.net/DTD/sodipodi-0.dtd"
   xmlns="http://www.w3.org/2000/svg"
   xmlns:svg="http://www.w3.org/2000/svg"><sodipodi:namedview
     id="namedview1"
     pagecolor="#ffffff"
     bordercolor="#000000"
     borderopacity="0.25"
     inkscape:showpageshadow="2"
     inkscape:pageopacity="0.0"
     inkscape:pagecheckerboard="0"
     inkscape:deskcolor="#d1d1d1"
     inkscape:document-units="mm"
     inkscape:export-bgcolor="#ffffff00"
     inkscape:zoom="0.97890839"
     inkscape:cx="409.63997"
     inkscape:cy="-116.96702"
     inkscape:window-width="1920"
     inkscape:window-height="991"
     inkscape:window-x="-9"
     inkscape:window-y="-9"
     inkscape:window-maximized="1"
     inkscape:current-layer="layer1" /><defs
     id="defs1" /><g
     inkscape:label="Layer 1"
     inkscape:groupmode="layer"
     id="layer1"
     transform="translate(109.42967,-332.72672)"><text
       xml:space="preserve"
       style="font-size:4.58611px;white-space:pre;inline-size:12.9248;display:inline;fill:#000000;stroke:none;stroke-width:900;stroke-dasharray:none;stroke-opacity:1;paint-order:normal"
       x="63.260616"
       y="26.947876"
       id="text1"><tspan
         x="63.260616"
         y="26.947876"
         id="tspan4"><tspan
           dx="0 2.9021478 2.9021478 2.9021482 2.9021473"
           id="tspan3">huhuh</tspan></tspan></text><text
       xml:space="preserve"
       style="font-style:normal;font-variant:normal;font-weight:normal;font-stretch:normal;font-size:14.1111px;font-family:Candara;-inkscape-font-specification:Candara;fill:#000000;stroke:none;stroke-width:899.999;stroke-dasharray:none;stroke-opacity:1;paint-order:normal"
       x="82.372589"
       y="25.992279"
       id="text2"><tspan
         sodipodi:role="line"
         id="tspan2"
         style="font-style:normal;font-variant:normal;font-weight:normal;font-stretch:normal;font-size:14.1111px;font-family:Candara;-inkscape-font-specification:Candara;stroke-width:900"
         x="82.372589"
         y="25.992279" /></text><path
       style="fill:#000000"
       d="m 69.855612,359.31002 c -0.213425,-0.55618 -0.218613,-19.52398 -0.0055,-20.07937 0.272976,-0.71136 1.162757,-0.49622 1.458693,0.35271 l 0.268847,0.77121 1.503327,-0.69532 c 1.24144,-0.5742 1.895104,-0.69702 3.752284,-0.70507 4.897685,-0.0212 6.117179,1.89051 5.753348,9.01925 -0.158925,3.11389 -0.613183,4.15443 -2.260956,5.17902 -0.851255,0.52931 -1.323742,0.60865 -3.624684,0.60865 -2.237382,0 -2.817797,-0.0919 -3.759772,-0.59532 -0.612666,-0.32742 -1.174757,-0.59531 -1.249091,-0.59531 -0.07433,0 -0.168374,1.57758 -0.208978,3.50573 l -0.07383,3.50573 -0.693805,0.0805 c -0.452089,0.0524 -0.751669,-0.0703 -0.859895,-0.35237 z m 8.935952,-7.63764 c 1.563834,-0.65341 1.745872,-1.18533 1.745872,-5.10146 0,-2.05418 -0.124468,-3.77373 -0.301243,-4.16171 -0.916546,-2.0116 -5.666987,-2.23177 -7.797236,-0.36139 l -0.897354,0.78789 v 3.64436 c 0,4.13081 -0.09287,3.93286 2.30835,4.92029 1.735751,0.71377 3.634231,0.81828 4.941611,0.27202 z m 15.848655,6.52049 c -3.321705,-3.13945 -5.10695,-7.65196 -5.10695,-12.90869 0,-3.60778 0.677036,-5.93673 2.543093,-8.74807 1.547073,-2.33076 3.123602,-3.80939 4.06162,-3.80939 1.19081,0 1.077212,0.94916 -0.27065,2.26141 -2.799247,2.72528 -4.262488,6.3044 -4.267583,10.43859 -0.0053,4.32585 1.245837,7.68372 3.952791,10.60845 1.656254,1.78951 1.892971,2.8853 0.623293,2.8853 -0.472366,0 -1.060733,-0.27878 -1.535614,-0.7276 z m 26.539061,0.30909 c -0.0883,-0.23019 -0.1606,-0.46594 -0.1606,-0.5239 0,-0.058 0.71099,-0.88992 1.57996,-1.8488 2.75481,-3.03981 3.97629,-6.33607 3.97629,-10.73026 0,-4.12447 -1.1179,-6.93051 -4.08359,-10.25015 -0.82495,-0.92341 -1.45484,-1.81638 -1.39976,-1.98438 0.0551,-0.168 0.46004,-0.34143 0.89991,-0.3854 0.6556,-0.0655 1.0233,0.1468 2.03996,1.17803 1.65589,1.67962 3.0406,3.81056 3.84,5.90938 0.57726,1.51561 0.65844,2.15515 0.6722,5.29566 0.0179,4.08358 -0.27827,5.61166 -1.62655,8.39214 -1.21316,2.50182 -3.7941,5.36619 -4.83521,5.36619 -0.43254,0 -0.80899,-0.17455 -0.90261,-0.41851 z m -8.13461,-2.48349 c 0.87782,-1.21179 1.25243,-2.5347 0.96986,-3.425 -0.14677,-0.46242 -0.38934,-0.55217 -1.49237,-0.55217 -1.04954,0 -1.4505,-0.13338 -1.97372,-0.6566 -0.63117,-0.63117 -0.65392,-0.77209 -0.58729,-3.63802 0.0672,-2.89213 -0.11197,-4.17204 -0.58413,-4.17204 -0.12591,0 -0.29899,0.22077 -0.38464,0.4906 -0.0856,0.26983 -0.86614,1.59857 -1.73445,2.95276 -2.64429,4.12395 -3.41249,6.90244 -2.429,8.78543 0.46533,0.89092 0.47041,0.9607 0.0538,0.73771 -0.75156,-0.40222 -2.16234,-2.14581 -2.6667,-3.29577 -1.40052,-3.19323 -0.99901,-4.82856 2.53522,-10.32585 1.57778,-2.45413 2.77096,-5.38564 2.99119,-7.34896 l 0.17941,-1.59948 1.62278,1.73575 c 2.77882,2.97229 3.56888,5.4818 2.92159,9.28006 -0.19736,1.15812 -0.17218,1.27112 0.26449,1.18702 0.26544,-0.0511 0.7719,-0.53997 1.12547,-1.08633 l 0.64284,-0.99339 0.735,1.12991 c 1.10621,1.70058 1.65771,4.14459 1.30565,5.78617 -0.46864,2.1852 -1.85809,4.3894 -3.50709,5.56359 l -0.80587,0.57383 z M -0.50515454,353.95953 c -0.06123,-0.10914 -0.18523,-0.5085 -0.275557,-0.88746 l -0.16423,-0.68902 -1.52599596,0.77786 c -1.405842,0.71662 -1.703442,0.7699 -3.779605,0.67663 -2.895019,-0.13006 -4.3473985,-0.84775 -5.2208705,-2.5799 -0.532629,-1.05624 -0.595312,-1.5698 -0.595312,-4.8774 0,-4.50364 0.365115,-5.55069 2.3405165,-6.71195 1.095387,-0.64393 1.494306,-0.72386 3.612608,-0.72386 2.108588,0 2.528971,0.0833 3.671346,0.7276 0.709553,0.40019 1.331362,0.72761 1.381798,0.72761 0.05044,0 0.12473696,-1.69664 0.16511196,-3.77031 0.07299,-3.74868 0.07703,-3.77083 0.704947,-3.85961 0.347345,-0.0491 0.732475,0.07 0.855844,0.26458 0.12337,0.19463 0.226131,4.90383 0.22836,10.46488 0.0039,9.72787 -0.01534,10.12138 -0.507721,10.3849 -0.609755,0.32633 -0.744114,0.3377 -0.89124,0.0755 z m -1.86803496,-2.77812 1.286672,-0.8599 0.07313,-3.88735 0.07313,-3.88736 -1.263757,-0.74086 c -1.596283,-0.9358 -4.508851,-1.18258 -5.940299,-0.50332 -1.526775,0.72451 -1.805749,1.51931 -1.805749,5.14466 0,1.95862 0.125453,3.46321 0.325341,3.90192 0.469004,1.02935 2.091174,1.67929 4.20882,1.68629 1.545977,0.005 1.909948,-0.097 3.042708,-0.85408 z m 55.7114605,2.65906 c -0.231076,-0.23108 -0.3175,-2.23882 -0.3175,-7.37594 0,-5.95138 0.06225,-7.11009 0.396875,-7.38781 0.471219,-0.39108 1.190625,0.056 1.190625,0.73998 0,0.32448 0.127527,0.29079 0.608032,-0.16062 1.201995,-1.12922 2.981989,-1.08651 4.398659,0.10554 0.447778,0.37678 0.814142,0.55783 0.814142,0.40233 0,-0.42832 1.98685,-1.35181 2.908374,-1.35181 1.148582,0 2.533083,0.63717 3.028964,1.39398 0.362757,0.55364 0.412253,1.5539 0.351309,7.0997 l -0.07094,6.45528 h -0.79375 -0.79375 l -0.132686,-5.95313 c -0.07298,-3.27422 -0.232805,-6.15695 -0.355172,-6.40607 -0.467636,-0.95204 -1.901671,-0.88903 -3.017871,0.1326 -0.579244,0.53017 -0.59541,0.68825 -0.598925,5.85657 -0.0042,6.21396 -0.05946,6.56219 -1.023157,6.45041 l -0.693022,-0.0804 -0.132292,-5.82084 c -0.140365,-6.17609 -0.300796,-6.98409 -1.398371,-7.0428 -1.03929,-0.0556 -1.366305,0.063 -2.107358,0.76451 l -0.727604,0.68875 v 5.58613 c 0,5.55277 -0.09949,6.22112 -0.926041,6.22112 -0.160073,0 -0.433917,-0.14287 -0.608542,-0.3175 z M -105.81741,353.717 c -0.097,-0.097 -0.17639,-3.01405 -0.17639,-6.48229 v -6.30591 h -1.59581 c -1.23334,0 -1.63353,-0.0983 -1.7619,-0.43283 -0.30653,-0.79881 0.29461,-1.28251 1.69733,-1.36575 l 1.32783,-0.0788 0.12438,-1.9382 c 0.20885,-3.2542 1.43283,-4.3865 4.7417,-4.3865 2.39883,0 3.95314,0.66999 4.56999,1.96991 0.53643,1.13043 0.53735,2.10246 0.002,2.54641 -0.55338,0.45927 -1.16831,0.0758 -1.72317,-1.07466 -0.59298,-1.22946 -1.20265,-1.58957 -2.6912,-1.58957 -1.07599,0 -1.42235,0.12964 -2.06609,0.77339 -0.66991,0.66991 -0.7734,0.97086 -0.7734,2.24896 v 1.47556 h 2.0661 c 2.36342,0 3.30458,0.41712 2.80073,1.24128 -0.23917,0.39123 -0.70974,0.49246 -2.57968,0.55496 l -2.28715,0.0765 v 6.05347 c 0,3.32941 -0.0723,6.24181 -0.1606,6.47199 -0.1597,0.41618 -1.17827,0.57895 -1.51509,0.24213 z m 32.01154,-0.20955 c -0.5595,-0.19949 -1.314953,-0.64074 -1.678785,-0.98057 -1.276165,-1.19197 -1.404985,-1.7614 -1.404985,-6.21075 0,-3.88407 0.04,-4.22242 0.59531,-5.03376 0.32743,-0.47839 1.190629,-1.19606 1.918233,-1.59483 1.174784,-0.64384 1.604367,-0.72603 3.836458,-0.73407 2.892641,-0.0104 4.075846,0.43644 5.3614,2.02479 0.948805,1.17228 1.53324,4.02022 1.044933,5.09194 l -0.309572,0.67944 h -5.297339 -5.297338 v 1.44276 c 0,0.79351 0.137373,1.74426 0.305273,2.11276 0.467225,1.02545 2.201535,1.73614 4.236696,1.73614 2.017122,0 3.097736,-0.32067 4.659897,-1.38281 1.28832,-0.87596 2.003666,-0.8719 2.129519,0.0121 0.124856,0.87697 -1.507135,2.31971 -3.188959,2.81916 -1.683174,0.49985 -5.53088,0.50972 -6.910741,0.0177 z m 7.68791,-9.69775 c -0.343918,-2.5641 -3.4019,-3.82144 -6.623997,-2.72356 -1.546951,0.52709 -2.295598,1.43658 -2.295598,2.78876 v 1.02265 h 4.532753 4.532754 z m 8.743744,9.72368 c -1.63327,-0.61011 -2.339534,-1.21002 -2.890259,-2.45503 -0.45983,-1.03952 -0.512954,-1.6568 -0.438272,-5.09254 0.08231,-3.7868 0.107617,-3.93928 0.805393,-4.85311 1.20742,-1.58128 2.814169,-2.1895 5.761881,-2.18112 3.013337,0.009 4.345242,0.56485 5.489809,2.2929 0.643349,0.97132 0.727899,1.34719 0.727899,3.23592 v 2.13695 l -5.490104,0.0715 -5.490104,0.0715 v 1.19376 c 0,2.83369 1.465773,4.07045 4.837144,4.08136 1.926837,0.006 3.201252,-0.39847 4.589815,-1.45758 1.189728,-0.90745 1.950124,-0.87198 1.950124,0.091 0,0.83784 -0.917585,1.83138 -2.38125,2.57835 -1.244474,0.63511 -6.045694,0.81897 -7.472076,0.28614 z m 7.651079,-9.58985 c -0.309885,-1.9096 -1.519713,-2.91684 -3.831249,-3.1897 -2.695464,-0.31817 -4.991579,0.99918 -5.262469,3.01925 l -0.150793,1.12447 h 4.699664 4.699665 z m 9.823096,9.59641 c -1.757923,-0.49702 -3.221884,-1.54785 -3.805799,-2.7318 -0.426182,-0.86412 -0.514877,-1.76812 -0.594025,-6.0544 -0.108497,-5.87572 0.147839,-7.7577 1.240851,-9.11016 1.22747,-1.51883 2.224515,-1.95099 4.781723,-2.07261 2.749194,-0.13074 4.210684,0.22788 5.48366,1.34556 1.556708,1.36681 2.233109,3.89837 1.257854,4.70776 -0.617234,0.51226 -1.116146,0.0695 -1.782023,-1.58134 -0.784274,-1.94441 -1.59587,-2.49615 -3.85995,-2.62408 -2.334952,-0.13194 -3.525877,0.39208 -4.337067,1.90832 -0.542664,1.01433 -0.582115,1.43773 -0.582115,6.24745 0,4.72658 0.04655,5.24815 0.554972,6.21771 0.305235,0.58208 0.918822,1.27094 1.363527,1.53079 1.666952,0.97405 4.773878,0.8284 6.153142,-0.28846 0.31961,-0.25881 0.731009,-1.06093 0.914221,-1.78249 0.302987,-1.19328 0.402248,-1.31193 1.097583,-1.31193 0.603913,0 0.783182,0.13231 0.85356,0.62997 0.269121,1.90301 -0.968042,3.87093 -2.926027,4.65436 -1.496971,0.59897 -4.277514,0.74978 -5.814087,0.31535 z m 15.061471,0.0188 c -1.495758,-0.48989 -2.773711,-1.63807 -3.089723,-2.77597 -0.151285,-0.54474 -0.275728,-2.60233 -0.276539,-4.5724 -0.0013,-3.19018 0.06364,-3.71108 0.593837,-4.7625 0.45569,-0.90366 0.905584,-1.33568 1.918229,-1.842 1.159127,-0.57957 1.666875,-0.66146 4.101041,-0.66146 2.43535,0 2.940804,0.0816 4.096604,0.66146 2.162455,1.08487 2.385687,1.71618 2.385687,6.74687 0,4.905 -0.236994,5.61573 -2.242859,6.72622 -0.967472,0.53561 -1.595014,0.65441 -3.822932,0.7237 -1.628099,0.0506 -3.053822,-0.0443 -3.663345,-0.24392 z m 5.463451,-1.80528 c 0.56429,-0.15668 1.308431,-0.56733 1.653646,-0.91254 0.60314,-0.60314 0.627664,-0.7785 0.627664,-4.48818 0,-3.70967 -0.02452,-3.88503 -0.627664,-4.48817 -1.693386,-1.69339 -6.618691,-1.53946 -8.103585,0.25325 -0.311838,0.37648 -0.396875,1.28786 -0.396875,4.25349 0,3.59933 0.02888,3.80512 0.622862,4.43781 1.040119,1.10792 4.011262,1.55872 6.223952,0.94434 z m 27.0883995,1.7799 c -2.840393,-1.06103 -3.207315,-1.81212 -3.328929,-6.81426 -0.08556,-3.51906 -0.04381,-3.96538 0.463931,-4.96064 1.047009,-2.05231 3.79767,-3.16408 7.0718635,-2.85834 3.783664,0.35333 5.534842,2.36566 5.334205,6.12971 l -0.08462,1.5875 -5.490104,0.0715 -5.490103,0.0715 v 1.19376 c 0,2.85368 1.463024,4.0728 4.894791,4.07878 1.939157,0.003 4.087736,-0.73445 4.861042,-1.66929 0.19972,-0.24144 0.646204,-0.43898 0.992188,-0.43898 0.51327,0 0.629061,0.13699 0.629061,0.74425 0,0.83784 -0.917585,1.83138 -2.38125,2.57835 -1.244473,0.63511 -6.045694,0.81897 -7.472076,0.28614 z m 7.6510795,-9.58985 c -0.309885,-1.9096 -1.519713,-2.91684 -3.831249,-3.1897 -2.6954645,-0.31817 -4.9915785,0.99918 -5.2624695,3.01925 l -0.150792,1.12447 h 4.6996635 4.699665 z m 9.862082,9.60631 c -1.787021,-0.50692 -2.971205,-1.34516 -3.701163,-2.61994 -0.640266,-1.11814 -0.651381,-1.2414 -0.651381,-7.22297 0,-5.76883 0.03037,-6.14218 0.583711,-7.17661 1.255398,-2.34686 3.040037,-3.13384 6.710792,-2.95927 2.861829,0.1361 4.397708,0.91901 5.247792,2.67505 0.660617,1.36465 0.721874,2.89157 0.135527,3.37819 -0.614471,0.50997 -1.192353,0.0312 -1.680894,-1.39272 -0.227477,-0.66299 -0.592189,-1.41734 -0.81047,-1.67634 -0.623244,-0.73948 -1.968368,-1.18267 -3.589536,-1.18267 -2.102378,0 -3.229166,0.60285 -3.920651,2.09761 -0.50767,1.09741 -0.559604,1.67622 -0.559604,6.23676 0,4.36633 0.06456,5.15695 0.491189,6.0151 0.759537,1.52779 2.046971,2.18698 4.271311,2.18698 2.613247,0 3.540092,-0.57398 4.202836,-2.60278 0.453333,-1.38774 0.56158,-1.51923 1.190625,-1.44625 0.498086,0.0578 0.716916,0.25679 0.781045,0.71025 0.26912,1.90301 -0.968043,3.87093 -2.926028,4.65436 -1.48021,0.59226 -4.278257,0.74984 -5.775101,0.32525 z m 15.167103,0.10215 c -1.195716,-0.30581 -2.125411,-0.96806 -2.745602,-1.95579 -0.419963,-0.66884 -0.511517,-1.19011 -0.438142,-2.49458 0.07837,-1.39328 0.213971,-1.77805 0.87426,-2.48076 1.196666,-1.27353 2.607967,-1.81079 4.774348,-1.81749 1.031898,-0.003 2.430882,0.16113 3.108854,0.36517 l 1.232675,0.37098 v -1.52593 c 0,-1.84026 -0.603452,-2.76895 -2.062555,-3.1742 -1.418688,-0.39401 -3.363185,-0.3368 -4.485108,0.13197 -1.119219,0.46764 -1.286318,0.67352 -1.669042,2.05643 -0.244834,0.88467 -0.366531,0.99826 -0.992118,0.92604 -0.636458,-0.0735 -0.721895,-0.20525 -0.795385,-1.22674 -0.105477,-1.46612 0.847554,-2.7982 2.536467,-3.54528 1.00555,-0.44481 1.629183,-0.5107 4.049159,-0.42787 3.18661,0.10907 3.874363,0.40576 4.87379,2.10252 0.464938,0.78934 0.53984,1.47143 0.6171,5.61955 l 0.08793,4.72116 0.757494,0.43475 c 1.262035,0.7243 1.254528,1.89688 -0.01214,1.89688 -0.976065,0 -2.161578,-0.44459 -2.551793,-0.95697 -0.269688,-0.35412 -0.442076,-0.31503 -1.396723,0.31672 -0.885788,0.58619 -1.44567,0.73573 -2.999631,0.80119 -1.050813,0.0443 -2.29454,-0.0177 -2.763838,-0.13775 z m 4.769012,-2.04855 c 1.958889,-1.01297 2.301964,-1.42525 2.301964,-2.76637 0,-1.21098 -0.033,-1.26389 -0.992187,-1.59086 -1.496359,-0.51007 -5.0461,-0.45832 -6.048149,0.0882 -1.717516,0.93668 -1.772341,2.98532 -0.110034,4.11161 1.094883,0.74184 3.563285,0.822 4.848406,0.15745 z M -93.2938,352.86589 c 0,-0.89074 0.44983,-1.08004 2.57968,-1.08558 l 1.38907,-0.004 v -5.41237 -5.41236 l -1.91823,-0.0777 c -1.79446,-0.0727 -1.92399,-0.11848 -2.00753,-0.70927 -0.12805,-0.90564 0.33427,-1.07965 2.88065,-1.08421 2.36429,-0.004 2.89719,0.20791 2.89719,1.15332 0,0.5136 0.01,0.51323 0.59531,-0.022 2.04921,-1.87374 5.12546,-1.79674 6.13399,0.15354 0.61353,1.18643 0.55222,2.86501 -0.11235,3.07593 -0.74163,0.23539 -1.00559,-0.003 -1.32708,-1.19654 -0.53043,-1.96986 -2.27093,-2.05227 -4.16128,-0.19703 l -1.12859,1.10763 v 4.31053 4.31054 h 2.08427 c 2.25529,0 2.86619,0.31389 2.54997,1.31022 -0.16555,0.52161 -0.3642,0.54186 -5.31353,0.54186 h -5.14154 z"
       id="path752" /></g></svg>
