<?xml version="1.0" encoding="UTF-8" standalone="no"?>
<!-- Created with Inkscape (http://www.inkscape.org/) -->

<svg
   width="501.22128mm"
   height="54.776085mm"
   viewBox="0 0 501.22128 54.776085"
   version="1.1"
   id="svg1"
   xml:space="preserve"
   inkscape:version="1.3.2 (091e20e, 2023-11-25, custom)"
   sodipodi:docname="hackerrank.svg"
   xmlns:inkscape="http://www.inkscape.org/namespaces/inkscape"
   xmlns:sodipodi="http://sodipodi.sourceforge.net/DTD/sodipodi-0.dtd"
   xmlns="http://www.w3.org/2000/svg"
   xmlns:svg="http://www.w3.org/2000/svg"><sodipodi:namedview
     id="namedview1"
     pagecolor="#ffffff"
     bordercolor="#000000"
     borderopacity="0.25"
     inkscape:showpageshadow="2"
     inkscape:pageopacity="0.0"
     inkscape:pagecheckerboard="0"
     inkscape:deskcolor="#d1d1d1"
     inkscape:document-units="mm"
     inkscape:export-bgcolor="#ffffff00"
     inkscape:zoom="0.34609638"
     inkscape:cx="733.89961"
     inkscape:cy="-195.03238"
     inkscape:window-width="1920"
     inkscape:window-height="991"
     inkscape:window-x="-9"
     inkscape:window-y="-9"
     inkscape:window-maximized="1"
     inkscape:current-layer="layer1" /><defs
     id="defs1" /><g
     inkscape:label="Layer 1"
     inkscape:groupmode="layer"
     id="layer1"
     transform="translate(229.59582,-734.9582)"><text
       xml:space="preserve"
       style="font-size:4.58611px;white-space:pre;inline-size:12.9248;display:inline;fill:#000000;stroke:none;stroke-width:900;stroke-dasharray:none;stroke-opacity:1;paint-order:normal"
       x="63.260616"
       y="26.947876"
       id="text1"><tspan
         x="63.260616"
         y="26.947876"
         id="tspan4"><tspan
           dx="0 2.9021478 2.9021478 2.9021482 2.9021473"
           id="tspan3">huhuh</tspan></tspan></text><text
       xml:space="preserve"
       style="font-style:normal;font-variant:normal;font-weight:normal;font-stretch:normal;font-size:14.1111px;font-family:Candara;-inkscape-font-specification:Candara;fill:#000000;stroke:none;stroke-width:899.999;stroke-dasharray:none;stroke-opacity:1;paint-order:normal"
       x="82.372589"
       y="25.992279"
       id="text2"><tspan
         sodipodi:role="line"
         id="tspan2"
         style="font-style:normal;font-variant:normal;font-weight:normal;font-stretch:normal;font-size:14.1111px;font-family:Candara;-inkscape-font-specification:Candara;stroke-width:900"
         x="82.372589"
         y="25.992279" /></text><path
       style="fill:#000000"
       id="path753"
       d="" /><path
       style="fill:#000000"
       id="path752"
       d="" /><g
       id="g2589"
       transform="translate(24.12416,31.335904)"><path
         style="fill:#cdd0d3"
         d="m -250.07693,757.42655 c 1.70987,-0.0461 4.50784,-0.0461 6.21771,0 1.70987,0.0461 0.31089,0.0838 -3.10885,0.0838 -3.41974,0 -4.81873,-0.0377 -3.10886,-0.0838 z m 25.92917,0 c 1.70987,-0.0461 4.50784,-0.0461 6.21771,0 1.70987,0.0461 0.31088,0.0838 -3.10885,0.0838 -3.41974,0 -4.81873,-0.0377 -3.10886,-0.0838 z m 47.90333,1.7e-4 c 1.42639,-0.0477 3.68857,-0.0475 5.02708,4.7e-4 1.33851,0.0479 0.17147,0.0869 -2.59343,0.0867 -2.76489,-2.5e-4 -3.86004,-0.0395 -2.43365,-0.0871 z m 65.33834,-1.7e-4 c 1.70987,-0.0461 4.50784,-0.0461 6.21771,0 1.70987,0.0461 0.31088,0.0838 -3.10885,0.0838 -3.41974,0 -4.81873,-0.0377 -3.10886,-0.0838 z m 28.325821,-2.3e-4 c 1.863862,-0.0455 4.840425,-0.0454 6.614584,3e-4 1.774158,0.0457 0.24918,0.083 -3.388841,0.0828 -3.638021,-1.7e-4 -5.089605,-0.0376 -3.225743,-0.0831 z m 64.55786,10e-5 c 1.71808,-0.0462 4.456518,-0.046 6.085417,3.4e-4 1.628899,0.0464 0.223197,0.0841 -3.123782,0.0839 -3.346979,-1.9e-4 -4.679715,-0.0381 -2.961635,-0.0843 z m 41.524657,1.3e-4 c 1.70987,-0.0461 4.507839,-0.0461 6.217708,0 1.70987,0.0461 0.310886,0.0838 -3.108854,0.0838 -3.41974,0 -4.818724,-0.0377 -3.108854,-0.0838 z m 28.030217,0 c 1.846801,-0.0454 4.942426,-0.0455 6.879166,-2.7e-4 1.936741,0.0453 0.425722,0.0824 -3.35782,0.0826 -3.783542,1.5e-4 -5.368148,-0.0369 -3.521346,-0.0823 z m 44.465618,3.4e-4 c 1.418828,-0.0476 3.740547,-0.0476 5.159377,0 1.41883,0.0476 0.25797,0.0865 -2.579689,0.0865 -2.837657,0 -3.998516,-0.0389 -2.579688,-0.0865 z m 20.372917,-3.4e-4 c 1.70987,-0.0461 4.50784,-0.0461 6.21771,0 1.70987,0.0461 0.31088,0.0838 -3.10886,0.0838 -3.41973,0 -4.81872,-0.0377 -3.10885,-0.0838 z m 25.66458,0 c 1.70987,-0.0461 4.50784,-0.0461 6.21771,0 1.70987,0.0461 0.31089,0.0838 -3.10885,0.0838 -3.41974,0 -4.81873,-0.0377 -3.10886,-0.0838 z m 21.96042,0 c 1.70987,-0.0461 4.50784,-0.0461 6.21771,0 1.70987,0.0461 0.31089,0.0838 -3.10885,0.0838 -3.41974,0 -4.81873,-0.0377 -3.10886,-0.0838 z m 28.32582,-2.3e-4 c 1.86386,-0.0455 4.84043,-0.0454 6.61459,3e-4 1.77415,0.0457 0.24918,0.083 -3.38884,0.0828 -3.63803,-1.7e-4 -5.08961,-0.0376 -3.22575,-0.0831 z m 25.78147,-5.2e-4 c 5.27514,-0.0401 13.90717,-0.0401 19.1823,0 5.27513,0.0401 0.95911,0.0729 -9.59115,0.0729 -10.55026,0 -14.86628,-0.0328 -9.59115,-0.0729 z M 62.350741,756.67605 c 0.0127,-0.30823 0.07539,-0.37092 0.159853,-0.15986 0.07643,0.191 0.06703,0.4192 -0.02089,0.50712 -0.08792,0.0879 -0.150453,-0.0684 -0.138965,-0.34726 z m -302.576491,-10.429 0.005,-10.45104 6.08542,-0.007 6.08542,-0.007 -6.01624,0.0783 -6.01624,0.0783 -0.0737,10.38003 -0.0737,10.38002 z m 25.92869,-15.7427 c -1e-5,-14.55209 0.032,-20.54405 0.0711,-13.31547 0.0391,7.22857 0.0391,19.13482 2e-5,26.45833 -0.0391,7.32351 -0.0711,1.40922 -0.0711,-13.14286 z m 352.68428,14.28749 c 6e-5,-6.69395 0.0344,-9.39446 0.0763,-6.00112 0.0419,3.39334 0.0419,8.87021 -10e-5,12.17083 -0.042,3.30062 -0.0762,0.52425 -0.0762,-6.16971 z m 69.59071,-14.1552 c 0,-14.47933 0.032,-20.40269 0.0711,-13.16302 0.0391,7.23966 0.0391,19.08638 0,26.32604 -0.0391,7.23966 -0.0711,1.3163 -0.0711,-13.16302 z m -174.625232,16.93333 0.0053,-8.86354 2.224358,-0.0775 c 1.223397,-0.0426 2.319326,0.0169 2.435398,0.13229 0.116073,0.1154 -0.853529,0.17164 -2.154669,0.12498 l -2.365711,-0.0848 -0.07497,8.81608 -0.07497,8.81608 z M 160.3529,730.50435 c 2e-5,-14.40657 0.032,-20.26133 0.0712,-13.0106 0.0391,7.25074 0.0391,19.03793 -2e-5,26.19375 -0.0392,7.15583 -0.0712,1.22341 -0.0712,-13.18315 z m -315.78938,21.3651 -0.9118,-0.99219 0.99219,0.9118 c 0.5457,0.50149 0.99219,0.94797 0.99219,0.99219 0,0.20204 -0.2239,0.0117 -1.07258,-0.9118 z m -35.75412,-4.48022 c 0.191,-0.0764 0.4192,-0.067 0.50712,0.0209 0.0879,0.0879 -0.0684,0.15045 -0.34726,0.13896 -0.30823,-0.0127 -0.37092,-0.0754 -0.15986,-0.15985 z m 1.85209,0 c 0.19099,-0.0764 0.4192,-0.067 0.50711,0.0209 0.0879,0.0879 -0.0684,0.15045 -0.34726,0.13896 -0.30823,-0.0127 -0.37092,-0.0754 -0.15985,-0.15985 z m 270.668754,0 c 0.190996,-0.0764 0.4192,-0.067 0.507118,0.0209 0.08792,0.0879 -0.06835,0.15045 -0.347265,0.13896 -0.308225,-0.0127 -0.37092,-0.0754 -0.159853,-0.15985 z m 1.852084,0 c 0.190996,-0.0764 0.419199,-0.067 0.507118,0.0209 0.08792,0.0879 -0.06835,0.15045 -0.347266,0.13896 -0.308224,-0.0127 -0.370919,-0.0754 -0.159852,-0.15985 z m -5.464865,-2.72968 c 0,-0.3638 0.06005,-0.51263 0.133452,-0.33073 0.0734,0.18191 0.0734,0.47956 0,0.66146 -0.0734,0.1819 -0.133452,0.0331 -0.133452,-0.33073 z m -285.506313,-0.41892 c 0.0127,-0.30822 0.0754,-0.37092 0.15985,-0.15985 0.0764,0.19099 0.067,0.4192 -0.0209,0.50712 -0.0879,0.0879 -0.15045,-0.0684 -0.13896,-0.34727 z m 298.525755,-2.62378 c 6.88e-4,-1.45521 0.04512,-2.01677 0.09874,-1.24791 0.05362,0.76887 0.05305,1.95949 -0.0013,2.64584 -0.0543,0.68634 -0.09817,0.0573 -0.09748,-1.39793 z m -12.267468,0.82614 c 0,-0.0549 0.208359,-0.2633 0.463021,-0.46302 0.419644,-0.32911 0.429002,-0.31975 0.0999,0.0999 -0.345644,0.44072 -0.562916,0.58088 -0.562916,0.36312 z m -150.262449,-3.49403 c 0.0127,-0.30822 0.07539,-0.37092 0.159852,-0.15985 0.07643,0.191 0.06703,0.4192 -0.02089,0.50712 -0.08792,0.0879 -0.150453,-0.0684 -0.138964,-0.34727 z m 160.796173,0.23819 c 0.190996,-0.0764 0.419199,-0.067 0.507118,0.0209 0.08792,0.0879 -0.06835,0.15046 -0.347265,0.13897 -0.308225,-0.0127 -0.37092,-0.0754 -0.159853,-0.15985 z m -236.202421,-1.03194 c 0.0127,-0.30822 0.0754,-0.37092 0.15985,-0.15985 0.0764,0.191 0.067,0.4192 -0.0209,0.50712 -0.0879,0.0879 -0.15045,-0.0684 -0.13896,-0.34727 z m 75.406248,-3.70416 c 0.0127,-0.30823 0.07539,-0.37092 0.159852,-0.15986 0.07643,0.191 0.06703,0.4192 -0.02089,0.50712 -0.08792,0.0879 -0.150453,-0.0684 -0.138964,-0.34726 z m 258.741622,-1.26847 c 0,-0.055 0.20836,-0.26331 0.46302,-0.46303 0.41964,-0.3291 0.429,-0.31974 0.0999,0.0999 -0.34564,0.44073 -0.56291,0.58089 -0.56291,0.36313 z M -5.6680655,731.85966 c 0,-0.0549 0.2083594,-0.2633 0.4630209,-0.46302 0.4196439,-0.32911 0.4290023,-0.31975 0.099895,0.0999 -0.3456437,0.44073 -0.5629157,0.58089 -0.5629157,0.36313 z M 104.15491,731.27605 c 0.0127,-0.30823 0.0754,-0.37092 0.15985,-0.15986 0.0764,0.191 0.067,0.4192 -0.0209,0.50712 -0.0879,0.0879 -0.15045,-0.0683 -0.13896,-0.34726 z m -189.991728,-0.47472 c 0,-0.0549 0.20836,-0.26331 0.463021,-0.46303 0.419644,-0.3291 0.429002,-0.31974 0.09989,0.0999 -0.345644,0.44073 -0.562916,0.58089 -0.562916,0.36313 z M 87.151078,730.4559 c 0.190996,-0.0764 0.419199,-0.067 0.507118,0.0209 0.08792,0.0879 -0.06835,0.15046 -0.347266,0.13897 -0.308224,-0.0127 -0.370919,-0.0754 -0.159852,-0.15985 z m -188.069148,-0.18374 c 0,-0.0549 0.20836,-0.2633 0.46302,-0.46302 0.41965,-0.32911 0.42901,-0.31975 0.0999,0.0999 -0.34565,0.44073 -0.56292,0.58089 -0.56292,0.36313 z m 191.161466,-0.16469 c 0.08994,-0.14552 0.216026,-0.26458 0.280198,-0.26458 0.06417,0 0.116677,0.11906 0.116677,0.26458 0,0.14552 -0.12609,0.26458 -0.280199,0.26458 -0.154109,0 -0.206613,-0.11906 -0.116676,-0.26458 z m 61.557404,-0.26458 c 0,-0.36381 0.06,-0.51263 0.13345,-0.33073 0.0734,0.1819 0.0734,0.47955 0,0.66146 -0.0734,0.1819 -0.13345,0.0331 -0.13345,-0.33073 z m -296.37512,-0.39688 c 0.34177,-0.3638 0.68094,-0.66146 0.7537,-0.66146 0.0728,0 -0.14734,0.29766 -0.48912,0.66146 -0.34177,0.3638 -0.68094,0.66146 -0.7537,0.66146 -0.0728,0 0.14735,-0.29766 0.48912,-0.66146 z m 334.69793,0.29698 c 0,-0.0549 0.20836,-0.2633 0.46302,-0.46302 0.41964,-0.32911 0.429,-0.31975 0.0999,0.0999 -0.34564,0.44073 -0.56291,0.58088 -0.56291,0.36312 z m -14.68438,-0.95844 c 0.26339,-0.29104 0.53842,-0.52916 0.61118,-0.52916 0.0728,0 -0.0832,0.23812 -0.3466,0.52916 -0.26338,0.29105 -0.53842,0.52917 -0.61118,0.52917 -0.0728,0 0.0832,-0.23812 0.3466,-0.52917 z m -358.67647,-0.7276 c -0.3291,-0.41964 -0.31975,-0.429 0.0999,-0.0999 0.25466,0.19972 0.46302,0.40808 0.46302,0.46303 0,0.21776 -0.21727,0.0776 -0.56292,-0.36313 z m 138.112508,-0.52917 c -0.329108,-0.41964 -0.319749,-0.429 0.0999,-0.0999 0.440729,0.34564 0.580887,0.56291 0.363126,0.56291 -0.05494,0 -0.263302,-0.20836 -0.463021,-0.46302 z m -37.537086,-0.16604 c 0,-0.0549 0.20836,-0.2633 0.463021,-0.46302 0.419644,-0.32911 0.429003,-0.31975 0.0999,0.0999 -0.345644,0.44073 -0.562916,0.58088 -0.562916,0.36312 z m 88.5858102,-0.0808 c 0.1909961,-0.0764 0.4191992,-0.067 0.507118,0.0209 0.087919,0.0879 -0.068351,0.15046 -0.3472656,0.13897 -0.3082245,-0.0127 -0.3709192,-0.0754 -0.1598524,-0.15985 z m 27.4161108,-6.16926 c 0,-3.56526 0.03745,-5.02378 0.08323,-3.24115 0.04577,1.78263 0.04577,4.69966 0,6.48229 -0.04577,1.78263 -0.08323,0.32412 -0.08323,-3.24114 z m -130.421713,5.02708 c 0.263389,-0.29104 0.538421,-0.52917 0.611181,-0.52917 0.07276,0 -0.08321,0.23813 -0.346597,0.52917 -0.263389,0.29104 -0.538421,0.52917 -0.611181,0.52917 -0.07276,0 0.08321,-0.23813 0.346597,-0.52917 z m -92.4007,0.0812 c 0.25744,-0.0671 0.61462,-0.0627 0.79375,0.01 0.17914,0.0725 -0.0315,0.12737 -0.46805,0.12197 -0.43656,-0.005 -0.58313,-0.0647 -0.3257,-0.13177 z m 272.520845,0 c 0.257431,-0.0671 0.614619,-0.0627 0.79375,0.01 0.179132,0.0725 -0.03149,0.12737 -0.468056,0.12197 -0.436563,-0.005 -0.583125,-0.0647 -0.325694,-0.13177 z m 110.260075,0.0835 c 0,-0.0549 0.20836,-0.2633 0.46302,-0.46302 0.41964,-0.32911 0.429,-0.31975 0.0999,0.0999 -0.34564,0.44073 -0.56291,0.58089 -0.56291,0.36313 z M 179.1434,724.8158 c 0.26339,-0.29104 0.53842,-0.52916 0.61118,-0.52916 0.0728,0 -0.0832,0.23812 -0.3466,0.52916 -0.26339,0.29105 -0.53842,0.52917 -0.61118,0.52917 -0.0728,0 0.0832,-0.23812 0.3466,-0.52917 z m -258.630218,-0.89364 c 0,-0.0549 0.20836,-0.2633 0.463021,-0.46302 0.419644,-0.32911 0.429003,-0.31975 0.0999,0.0999 -0.345644,0.44073 -0.562916,0.58089 -0.562916,0.36313 z m -160.746092,-0.49669 c -0.0701,-0.1826 -0.0945,-4.61768 -0.0544,-9.85573 l 0.073,-9.52373 0.0627,9.71856 0.0627,9.71856 6.15157,0.0761 6.15156,0.0761 -6.15987,0.061 c -4.742,0.047 -6.18919,-0.0154 -6.28726,-0.27097 z m 436.83881,-0.72633 c 0.26339,-0.29104 0.53842,-0.52917 0.61118,-0.52917 0.0728,0 -0.0832,0.23813 -0.3466,0.52917 -0.26339,0.29104 -0.53842,0.52916 -0.61118,0.52916 -0.0728,0 0.0832,-0.23812 0.3466,-0.52916 z m -289.983343,-0.52917 c 0.263389,-0.29104 0.538421,-0.52917 0.611181,-0.52917 0.07276,0 -0.08321,0.23813 -0.346598,0.52917 -0.263389,0.29104 -0.53842,0.52917 -0.611181,0.52917 -0.07276,0 0.08321,-0.23813 0.346598,-0.52917 z m 153.367822,0 c 0,-0.3638 0.06005,-0.51263 0.133452,-0.33073 0.0734,0.1819 0.0734,0.47956 0,0.66146 -0.0734,0.1819 -0.133452,0.0331 -0.133452,-0.33073 z m 122.857181,-1.32292 c 0.26339,-0.29104 0.53843,-0.52916 0.61119,-0.52916 0.0728,0 -0.0832,0.23812 -0.3466,0.52916 -0.26339,0.29105 -0.53842,0.52917 -0.61118,0.52917 -0.0728,0 0.0832,-0.23812 0.34659,-0.52917 z m -259.027086,-0.52916 c 0.263389,-0.29104 0.538421,-0.52917 0.611181,-0.52917 0.07276,0 -0.08321,0.23813 -0.346597,0.52917 -0.26339,0.29104 -0.538421,0.52916 -0.611181,0.52916 -0.07276,0 0.08321,-0.23812 0.346597,-0.52916 z m 175.795605,-0.19844 -0.641433,-0.7276 0.727604,0.64143 c 0.40018,0.35279 0.7276,0.68021 0.7276,0.7276 0,0.20751 -0.21426,0.0386 -0.813771,-0.64143 z m -39.6257,-0.8599 c 0,-0.3638 0.06005,-0.51263 0.133452,-0.33073 0.0734,0.18191 0.0734,0.47956 0,0.66146 -0.0734,0.1819 -0.133452,0.0331 -0.133452,-0.33073 z m 139.393641,0.42928 c 0,-0.055 0.20836,-0.26331 0.46302,-0.46303 0.41965,-0.3291 0.42901,-0.31974 0.0999,0.0999 -0.34564,0.44073 -0.56292,0.58089 -0.56292,0.36313 z m -289.189588,-1.32292 c 0,-0.0549 0.20836,-0.2633 0.463021,-0.46302 0.419644,-0.32911 0.429002,-0.31975 0.09989,0.0999 -0.345644,0.44073 -0.562916,0.58089 -0.562916,0.36313 z M 186.55173,716.8783 c 0.26339,-0.29104 0.53842,-0.52916 0.61118,-0.52916 0.0728,0 -0.0832,0.23812 -0.3466,0.52916 -0.26338,0.29105 -0.53842,0.52917 -0.61118,0.52917 -0.0728,0 0.0832,-0.23812 0.3466,-0.52917 z m -375.6422,-1.76272 c 0.1819,-0.0734 0.47956,-0.0734 0.66146,0 0.1819,0.0734 0.0331,0.13345 -0.33073,0.13345 -0.3638,0 -0.51263,-0.0601 -0.33073,-0.13345 z m 3.70417,0 c 0.1819,-0.0734 0.47956,-0.0734 0.66146,0 0.1819,0.0734 0.0331,0.13345 -0.33073,0.13345 -0.3638,0 -0.51263,-0.0601 -0.33073,-0.13345 z m 46.0375,0 c 0.1819,-0.0734 0.47956,-0.0734 0.66146,0 0.1819,0.0734 0.0331,0.13345 -0.33073,0.13345 -0.3638,0 -0.51263,-0.0601 -0.33073,-0.13345 z m 3.43959,0 c 0.1819,-0.0734 0.47955,-0.0734 0.66145,0 0.1819,0.0734 0.0331,0.13345 -0.33073,0.13345 -0.3638,0 -0.51263,-0.0601 -0.33072,-0.13345 z m 83.889451,-0.006 c 0.190996,-0.0764 0.419199,-0.067 0.507118,0.0209 0.08792,0.0879 -0.06835,0.15045 -0.347266,0.13897 -0.308225,-0.0127 -0.370919,-0.0754 -0.159852,-0.15986 z m 3.158463,0.006 c 0.181901,-0.0734 0.479557,-0.0734 0.661459,0 0.181901,0.0734 0.03307,0.13345 -0.33073,0.13345 -0.363802,0 -0.51263,-0.0601 -0.330729,-0.13345 z m 52.9332048,-0.006 c 0.1909961,-0.0764 0.4191992,-0.067 0.507118,0.0209 0.087919,0.0879 -0.068351,0.15045 -0.3472656,0.13897 -0.3082245,-0.0127 -0.3709192,-0.0754 -0.1598524,-0.15986 z m 3.4230469,0.006 c 0.1819011,-0.0734 0.4795573,-0.0734 0.6614584,0 0.181901,0.0734 0.033073,0.13345 -0.3307292,0.13345 -0.3638021,0 -0.5126302,-0.0601 -0.3307292,-0.13345 z m 75.6708353,0 c 0.181901,-0.0734 0.479558,-0.0734 0.661459,0 0.181901,0.0734 0.03307,0.13345 -0.33073,0.13345 -0.363802,0 -0.51263,-0.0601 -0.330729,-0.13345 z m 3.96875,0 c 0.181901,-0.0734 0.479558,-0.0734 0.661459,0 0.181901,0.0734 0.03307,0.13345 -0.33073,0.13345 -0.363802,0 -0.51263,-0.0601 -0.330729,-0.13345 z m 49.229039,-0.006 c 0.191,-0.0764 0.4192,-0.067 0.50712,0.0209 0.0879,0.0879 -0.0684,0.15045 -0.34727,0.13897 -0.30822,-0.0127 -0.37092,-0.0754 -0.15985,-0.15986 z m 3.175,0 c 0.191,-0.0764 0.4192,-0.067 0.50712,0.0209 0.0879,0.0879 -0.0684,0.15045 -0.34727,0.13897 -0.30822,-0.0127 -0.37092,-0.0754 -0.15985,-0.15986 z M 40.055243,714.845 c 0.190996,-0.0764 0.419199,-0.067 0.507118,0.0209 0.08792,0.0879 -0.06835,0.15045 -0.347265,0.13896 -0.308225,-0.0127 -0.37092,-0.0754 -0.159853,-0.15985 z m 2.645834,-11.1125 c 0.190996,-0.0764 0.419199,-0.067 0.507118,0.0209 0.08792,0.0879 -0.06835,0.15045 -0.347266,0.13896 -0.308225,-0.0127 -0.370919,-0.0754 -0.159852,-0.15985 z"
         id="path2595" /><path
         style="fill:#98e2b2"
         d="m 247.40087,730.50435 c -1e-5,-14.55209 0.032,-20.54405 0.0711,-13.31547 0.0391,7.22857 0.0391,19.13482 2e-5,26.45833 -0.0391,7.32351 -0.0711,1.40922 -0.0711,-13.14286 z"
         id="path2594" /><path
         style="fill:#9b9fa5"
         d="m -140.65518,758.23715 c 0.191,-0.0764 0.4192,-0.067 0.50712,0.0209 0.0879,0.0879 -0.0684,0.15046 -0.34727,0.13897 -0.30822,-0.0127 -0.37092,-0.0754 -0.15985,-0.15985 z m 4.49792,0 c 0.19099,-0.0764 0.4192,-0.067 0.50712,0.0209 0.0879,0.0879 -0.0684,0.15046 -0.34727,0.13897 -0.30822,-0.0127 -0.37092,-0.0754 -0.15985,-0.15985 z m 84.650131,0.006 c 0.181901,-0.0734 0.479557,-0.0734 0.661458,0 0.181901,0.0734 0.03307,0.13345 -0.330729,0.13345 -0.363802,0 -0.51263,-0.0601 -0.330729,-0.13345 z m 4.514453,-0.006 c 0.190996,-0.0764 0.419199,-0.067 0.507118,0.0209 0.08792,0.0879 -0.06835,0.15046 -0.347266,0.13897 -0.308224,-0.0127 -0.370919,-0.0754 -0.159852,-0.15985 z m 123.56042,0 c 0.190996,-0.0764 0.419199,-0.067 0.507118,0.0209 0.08792,0.0879 -0.06835,0.15046 -0.347265,0.13897 -0.308225,-0.0127 -0.37092,-0.0754 -0.159853,-0.15985 z m 3.704167,0 c 0.190996,-0.0764 0.419199,-0.067 0.507118,0.0209 0.08792,0.0879 -0.06835,0.15046 -0.347266,0.13897 -0.308224,-0.0127 -0.370919,-0.0754 -0.159852,-0.15985 z m -333.991891,-27.7328 c -1e-5,-14.55209 0.032,-20.54405 0.0711,-13.31547 0.0391,7.22857 0.0391,19.13482 2e-5,26.45833 -0.0391,7.32351 -0.0711,1.40922 -0.0711,-13.14286 z m 25.92248,15.87499 c 7e-5,-5.82083 0.035,-8.16438 0.0776,-5.20789 0.0426,2.95648 0.0426,7.71898 -1.3e-4,10.58333 -0.0427,2.86434 -0.0776,0.4454 -0.0775,-5.37544 z m 113.24836,-15.87499 c -1e-5,-14.55209 0.032,-20.54405 0.0711,-13.31547 0.0391,7.22857 0.0391,19.13482 2e-5,26.45833 -0.0391,7.32351 -0.0711,1.40922 -0.0711,-13.14286 z m 13.47678,21.43124 c 2.5e-4,-2.76489 0.0395,-3.86003 0.0871,-2.43365 0.0477,1.42639 0.0475,3.68858 -4.6e-4,5.02709 -0.0479,1.3385 -0.0869,0.17146 -0.0867,-2.59344 z m 252.95417,-8.33437 c 0,-7.3488 0.034,-10.35513 0.0754,-6.68073 0.0415,3.6744 0.0415,9.68706 0,13.36146 -0.0415,3.6744 -0.0754,0.66807 -0.0754,-6.68073 z m -217.75923,8.40052 -0.777106,-0.8599 0.859896,0.77711 c 0.472943,0.42741 0.859896,0.81436 0.859896,0.8599 0,0.2044 -0.218315,0.0244 -0.942686,-0.77711 z m -55.12809,-0.35278 c 0.0127,-0.30822 0.0754,-0.37092 0.15985,-0.15985 0.0764,0.191 0.067,0.4192 -0.0209,0.50712 -0.0879,0.0879 -0.15045,-0.0684 -0.13896,-0.34727 z m 73.202548,-4.00113 c 0.327421,-0.0631 0.863203,-0.0631 1.190625,0 0.327421,0.0631 0.05953,0.11466 -0.595313,0.11466 -0.654844,0 -0.922734,-0.0516 -0.595312,-0.11466 z m -89.412638,-0.52318 c 0.191,-0.0764 0.4192,-0.067 0.50712,0.0209 0.0879,0.0879 -0.0683,0.15046 -0.34726,0.13897 -0.30823,-0.0127 -0.37092,-0.0754 -0.15986,-0.15985 z m -70.52741,-1.53906 c 0.003,-0.58208 0.0571,-0.78905 0.1204,-0.45993 0.0633,0.32912 0.0609,0.80537 -0.005,1.05833 -0.0662,0.25297 -0.118,-0.0163 -0.11506,-0.5984 z m 108.401384,-0.19843 c 0.648763,-0.69123 1.214309,-1.25677 1.256771,-1.25677 0.198672,0 -0.01138,0.23755 -1.179567,1.33397 l -1.256768,1.17957 z m 43.63356,-0.66146 c -0.329107,-0.41964 -0.319749,-0.429 0.0999,-0.0999 0.440729,0.34565 0.580887,0.56292 0.363126,0.56292 -0.05494,0 -0.263302,-0.20836 -0.463021,-0.46302 z m -88.886274,-0.52917 -0.64144,-0.7276 0.72761,0.64143 c 0.68005,0.59952 0.84894,0.81378 0.64143,0.81378 -0.0474,0 -0.37482,-0.32743 -0.7276,-0.72761 z m 209.326331,-0.22048 c 0.0127,-0.30823 0.07539,-0.37092 0.159853,-0.15986 0.07643,0.191 0.06703,0.4192 -0.02089,0.50712 -0.08792,0.0879 -0.150453,-0.0684 -0.138965,-0.34726 z m -115.992898,-3.21883 c 3.518781,-0.0417 9.352844,-0.0417 12.964583,-9e-5 3.61174,0.0416 0.732737,0.0757 -6.397784,0.0757 -7.130521,5e-5 -10.085581,-0.034 -6.566799,-0.0756 z m -132.785943,-1.57007 c 0.191,-0.0764 0.4192,-0.067 0.50712,0.0209 0.0879,0.0879 -0.0684,0.15046 -0.34726,0.13897 -0.30823,-0.0127 -0.37092,-0.0754 -0.15986,-0.15985 z m 112.321904,-2.4651 c 0,-1.0914 0.0467,-1.53789 0.103786,-0.99218 0.05708,0.5457 0.05708,1.43867 0,1.98437 -0.05708,0.5457 -0.103786,0.0992 -0.103786,-0.99219 z m 40.677768,0.904 c 0.0127,-0.30823 0.07539,-0.37092 0.159852,-0.15986 0.07643,0.191 0.06703,0.4192 -0.02089,0.50712 -0.08792,0.0879 -0.150453,-0.0684 -0.138964,-0.34726 z m 85.704114,-3.8972 c 0,-0.0455 0.386953,-0.43249 0.859896,-0.8599 l 0.859896,-0.7771 -0.777105,0.85989 c -0.724372,0.80154 -0.942687,0.98151 -0.942687,0.77711 z m 49.543804,-1.10784 c 0.003,-0.58208 0.0571,-0.78905 0.12041,-0.45993 0.0633,0.32911 0.0609,0.80536 -0.005,1.05833 -0.0662,0.25296 -0.118,-0.0163 -0.11507,-0.5984 z m -135.247918,-0.28663 c 0.0127,-0.30822 0.07539,-0.37092 0.159852,-0.15985 0.07643,0.19099 0.06703,0.4192 -0.02089,0.50712 -0.08792,0.0879 -0.150453,-0.0684 -0.138964,-0.34727 z m 169.354228,-0.11024 c 0,-0.36381 0.06,-0.51263 0.13345,-0.33073 0.0734,0.1819 0.0734,0.47955 0,0.66146 -0.0734,0.1819 -0.13345,0.0331 -0.13345,-0.33073 z m -192.444005,-0.46252 c 2.082476,-0.0448 5.416226,-0.0447 7.408334,2.4e-4 1.992107,0.0449 0.288263,0.0815 -3.786321,0.0814 -4.074583,-1.3e-4 -5.704489,-0.0369 -3.622013,-0.0816 z m -32.493613,-0.16654 c 0,-0.055 0.20836,-0.26331 0.463021,-0.46303 0.419644,-0.3291 0.429002,-0.31974 0.0999,0.0999 -0.345644,0.44073 -0.562916,0.58089 -0.562916,0.36313 z m -81.735362,-0.58362 c 0.0127,-0.30822 0.0754,-0.37092 0.15985,-0.15985 0.0764,0.191 0.067,0.4192 -0.0209,0.50712 -0.0879,0.0879 -0.15045,-0.0684 -0.13896,-0.34727 z m -16.21008,-0.55556 c 0.19099,-0.0764 0.4192,-0.067 0.50711,0.0209 0.0879,0.0879 -0.0683,0.15046 -0.34726,0.13897 -0.30823,-0.0127 -0.37092,-0.0754 -0.15985,-0.15985 z m 373.90587,0.0808 c 0,-0.0549 0.20836,-0.2633 0.46302,-0.46302 0.41964,-0.32911 0.429,-0.31975 0.0999,0.0999 -0.34564,0.44073 -0.56291,0.58088 -0.56291,0.36312 z m -290.3899,-13.12927 c 0,-7.20328 0.034,-10.15008 0.0756,-6.54844 0.0416,3.60164 0.0416,9.49524 0,13.09688 -0.0416,3.60164 -0.0756,0.65484 -0.0756,-6.54844 z m 1.332597,11.64167 c 0.263389,-0.29104 0.53842,-0.52917 0.611181,-0.52917 0.07276,0 -0.08321,0.23813 -0.346598,0.52917 -0.263389,0.29104 -0.53842,0.52916 -0.61118,0.52916 -0.0728,0 0.08321,-0.23812 0.346597,-0.52916 z m 16.271875,-0.89365 c 0,-0.0549 0.20836,-0.2633 0.463021,-0.46302 0.419644,-0.32911 0.429002,-0.31975 0.0999,0.0999 -0.345644,0.44073 -0.562916,0.58088 -0.562916,0.36312 z m 259.556258,0 c 0,-0.0549 0.20836,-0.2633 0.46302,-0.46302 0.41964,-0.32911 0.429,-0.31975 0.0999,0.0999 -0.34565,0.44073 -0.56292,0.58088 -0.56292,0.36312 z m -141.078698,-0.6254 c 0.915207,-0.0518 2.343958,-0.0514 3.175,9.6e-4 0.831042,0.0523 0.08223,0.0947 -1.664015,0.0942 -1.74625,-5.2e-4 -2.426193,-0.0433 -1.510985,-0.0952 z m 157.482868,-0.43289 c 0,-0.0549 0.20836,-0.2633 0.46302,-0.46302 0.41964,-0.32911 0.429,-0.31975 0.0999,0.0999 -0.34564,0.44073 -0.56291,0.58089 -0.56291,0.36313 z m -382.90171,-0.8746 c 0.191,-0.0764 0.4192,-0.067 0.50712,0.0209 0.0879,0.0879 -0.0684,0.15045 -0.34726,0.13897 -0.30823,-0.0127 -0.37092,-0.0754 -0.15986,-0.15986 z m 2.10013,0.006 c 0.1819,-0.0734 0.47956,-0.0734 0.66146,0 0.1819,0.0734 0.0331,0.13345 -0.33073,0.13345 -0.3638,0 -0.51263,-0.0601 -0.33073,-0.13345 z m 270.139594,0 c 0.181902,-0.0734 0.479558,-0.0734 0.661459,0 0.181901,0.0734 0.03307,0.13345 -0.330729,0.13345 -0.363802,0 -0.512631,-0.0601 -0.33073,-0.13345 z m 2.397787,-0.006 c 0.190996,-0.0764 0.419199,-0.067 0.507118,0.0209 0.08792,0.0879 -0.06835,0.15045 -0.347266,0.13897 -0.308224,-0.0127 -0.370919,-0.0754 -0.159852,-0.15986 z m -180.263937,-1.14217 c 0.263389,-0.29104 0.53842,-0.52917 0.611181,-0.52917 0.07276,0 -0.08321,0.23813 -0.346598,0.52917 -0.263389,0.29104 -0.538421,0.52916 -0.611181,0.52916 -0.07276,0 0.08321,-0.23812 0.346598,-0.52916 z m 15.875,-0.52917 c 0.263389,-0.29104 0.538421,-0.52917 0.611181,-0.52917 0.07276,0 -0.08321,0.23813 -0.346598,0.52917 -0.263389,0.29104 -0.53842,0.52917 -0.61118,0.52917 -0.07276,0 0.08321,-0.23813 0.346597,-0.52917 z m 259.953136,-0.36448 c 0,-0.0549 0.20836,-0.2633 0.46302,-0.46302 0.41964,-0.32911 0.429,-0.31975 0.0999,0.0999 -0.34564,0.44073 -0.56291,0.58088 -0.56291,0.36312 z m 15.61041,-0.26458 c 0,-0.0549 0.20836,-0.2633 0.46302,-0.46302 0.41965,-0.32911 0.42901,-0.31975 0.0999,0.0999 -0.34564,0.44073 -0.56292,0.58089 -0.56292,0.36313 z m -423.2136,-10.08656 c 8e-5,-5.38428 0.0354,-7.54938 0.0784,-4.81135 0.043,2.73804 0.043,7.14335 -1.5e-4,9.78959 -0.0431,2.64624 -0.0783,0.40603 -0.0782,-4.97824 z m 135.47922,7.27604 c 0.26339,-0.29104 0.538421,-0.52917 0.611181,-0.52917 0.07276,0 -0.08321,0.23813 -0.346597,0.52917 -0.263389,0.29104 -0.538421,0.52916 -0.611181,0.52916 -0.07276,0 0.08321,-0.23812 0.346597,-0.52916 z m 14.948959,0.42927 c 0,-0.0549 0.20836,-0.2633 0.463021,-0.46302 0.419644,-0.32911 0.429002,-0.31975 0.09989,0.0999 -0.345644,0.44073 -0.562916,0.58089 -0.562916,0.36313 z m 137.385478,-0.82615 c 0.0029,-0.58208 0.05712,-0.78905 0.120405,-0.45993 0.06329,0.32911 0.06088,0.80536 -0.0053,1.05833 -0.06622,0.25296 -0.118003,-0.0163 -0.115066,-0.5984 z m -70.160421,0.24254 c 0.0127,-0.30823 0.07539,-0.37092 0.1598523,-0.15986 0.07643,0.191 0.067031,0.4192 -0.020888,0.50712 -0.08792,0.0879 -0.150453,-0.0684 -0.138964,-0.34726 z m 208.735364,-0.47472 c 0,-0.0549 0.20836,-0.26331 0.46302,-0.46303 0.41965,-0.3291 0.42901,-0.31974 0.0999,0.0999 -0.34564,0.44073 -0.56292,0.58089 -0.56292,0.36313 z m -14.68437,-0.69386 c 0.26339,-0.29104 0.53842,-0.52917 0.61118,-0.52917 0.0728,0 -0.0832,0.23813 -0.3466,0.52917 -0.26339,0.29104 -0.53842,0.52917 -0.61118,0.52917 -0.0728,0 0.0832,-0.23813 0.3466,-0.52917 z m -194.315577,-1.21267 c 0.0127,-0.30823 0.07539,-0.37092 0.159852,-0.15986 0.07643,0.191 0.06703,0.4192 -0.02089,0.50712 -0.08792,0.0879 -0.150453,-0.0684 -0.138964,-0.34726 z m -78.205266,-1.43316 c 0.263389,-0.29104 0.538421,-0.52917 0.611181,-0.52917 0.07276,0 -0.08321,0.23813 -0.346597,0.52917 -0.26339,0.29104 -0.538421,0.52916 -0.611181,0.52916 -0.07276,0 0.08321,-0.23812 0.346597,-0.52916 z m -99.020317,-2.0416 c 0.40018,-0.0606 1.05503,-0.0606 1.45521,0 0.40018,0.0606 0.0728,0.11023 -0.7276,0.11023 -0.80037,0 -1.12779,-0.0496 -0.72761,-0.11023 z m 49.74531,-3.5e-4 c 0.40218,-0.0608 0.99749,-0.0592 1.32291,0.004 0.32543,0.0628 -0.004,0.11256 -0.73124,0.11057 -0.7276,-0.002 -0.99386,-0.0534 -0.59167,-0.11419 z m 87.047917,0 c 0.402183,-0.0608 0.997496,-0.0592 1.322917,0.004 0.325421,0.0628 -0.0036,0.11256 -0.731242,0.11057 -0.727605,-0.002 -0.993858,-0.0534 -0.591675,-0.11419 z m 56.0880303,3.5e-4 c 0.4001823,-0.0606 1.0550261,-0.0606 1.4552084,0 0.4001823,0.0606 0.07276,0.11023 -0.7276042,0.11023 -0.8003646,0 -1.1277865,-0.0496 -0.7276042,-0.11023 z m 79.5120327,-0.002 c 0.475549,-0.0589 1.189924,-0.0577 1.5875,0.003 0.397576,0.0604 0.0085,0.10855 -0.864635,0.10707 -0.873125,-10e-4 -1.198414,-0.0509 -0.722865,-0.10977 z m 52.78328,0.002 c 0.40218,-0.0608 0.99749,-0.0592 1.32291,0.004 0.32542,0.0628 -0.004,0.11256 -0.73124,0.11057 -0.7276,-0.002 -0.99386,-0.0534 -0.59167,-0.11419 z M 41.907326,703.73298 c 0.190997,-0.0764 0.4192,-0.067 0.507119,0.0209 0.08792,0.0879 -0.06835,0.15045 -0.347266,0.13896 -0.308225,-0.0127 -0.370919,-0.0754 -0.159853,-0.15985 z"
         id="path2593" /><path
         style="fill:#767d84"
         d="m -194.64672,758.22649 c 0.47295,-0.0587 1.24685,-0.0587 1.7198,0 0.47294,0.0587 0.086,0.10671 -0.8599,0.10671 -0.94589,0 -1.33284,-0.048 -0.8599,-0.10671 z m 55.43021,-10e-4 c 0.54571,-0.0571 1.43868,-0.0571 1.98438,0 0.5457,0.0571 0.0992,0.10378 -0.99219,0.10378 -1.09141,0 -1.53789,-0.0467 -0.99219,-0.10378 z m 89.290979,0.002 c 0.469697,-0.0584 1.303135,-0.0594 1.852084,-0.002 0.548949,0.0573 0.164651,0.1051 -0.853995,0.10628 -1.018646,10e-4 -1.467786,-0.0457 -0.998089,-0.10414 z m 127.804394,-8e-4 c 0.475549,-0.0589 1.189924,-0.0577 1.5875,0.003 0.397576,0.0604 0.0085,0.10856 -0.864634,0.10707 -0.873125,-10e-4 -1.198415,-0.0509 -0.722866,-0.10977 z M 19.859198,730.50435 c -1.4e-5,-14.55209 0.03199,-20.54405 0.07111,-13.31547 0.03912,7.22857 0.03913,19.13482 2.3e-5,26.45833 -0.03911,7.32351 -0.07112,1.40922 -0.07113,-13.14286 z m 84.396462,14.68437 c 0,-6.47568 0.0344,-9.12482 0.0765,-5.88698 0.0421,3.23784 0.0421,8.53612 0,11.77396 -0.0421,3.23784 -0.0765,0.5887 -0.0765,-5.88698 z m 21.96148,-1.45521 c 5e-5,-7.27604 0.034,-10.21454 0.0756,-6.53001 0.0415,3.68454 0.0415,9.63766 -9e-5,13.22917 -0.0416,3.5915 -0.0755,0.57688 -0.0755,-6.69916 z m 47.61212,8.33438 c 0,-2.69214 0.0393,-3.79347 0.0873,-2.4474 0.048,1.34607 0.048,3.54872 0,4.89479 -0.048,1.34607 -0.0873,0.24474 -0.0873,-2.44739 z m -222.674019,-4.41408 c 0.190996,-0.0764 0.419199,-0.067 0.507118,0.0209 0.08792,0.0879 -0.06835,0.15045 -0.347266,0.13897 -0.308224,-0.0127 -0.370919,-0.0754 -0.159852,-0.15986 z m 2.910416,0 c 0.190996,-0.0764 0.4192,-0.067 0.507118,0.0209 0.08792,0.0879 -0.06835,0.15045 -0.347265,0.13897 -0.308225,-0.0127 -0.370919,-0.0754 -0.159853,-0.15986 z m -92.075007,-0.52916 c 0.191,-0.0764 0.4192,-0.067 0.50712,0.0209 0.0879,0.0879 -0.0684,0.15046 -0.34726,0.13897 -0.30823,-0.0127 -0.37092,-0.0754 -0.15986,-0.15985 z m 1.57097,0.006 c 0.1819,-0.0734 0.47956,-0.0734 0.66146,0 0.1819,0.0734 0.0331,0.13345 -0.33073,0.13345 -0.3638,0 -0.51263,-0.06 -0.33073,-0.13345 z m 311.46968,-1.21384 c 1.09642,-1.16818 1.33397,-1.37824 1.33397,-1.17956 0,0.0425 -0.56554,0.60801 -1.25677,1.25677 l -1.25677,1.17956 z M 64.786778,745.58559 c 0.002,-0.7276 0.05337,-0.99385 0.114185,-0.59167 0.06082,0.40218 0.05919,0.9975 -0.0036,1.32292 -0.0628,0.32542 -0.112561,-0.004 -0.110574,-0.73125 z m 13.384327,0.72761 c -0.329108,-0.41964 -0.31975,-0.429 0.09989,-0.0999 0.44073,0.34565 0.580888,0.56292 0.363126,0.56292 -0.05494,0 -0.263301,-0.20836 -0.46302,-0.46302 z m -259.788815,-4.75044 c -0.0718,-1.48495 -0.0366,-2.60537 0.0784,-2.48982 0.11491,0.11555 0.17366,1.33051 0.13057,2.69992 l -0.0784,2.48982 z m 84.403809,1.64158 c 0.493655,-0.50932 0.957086,-0.92604 1.029846,-0.92604 0.07276,0 -0.271608,0.41672 -0.765263,0.92604 -0.493655,0.50933 -0.957086,0.92605 -1.029847,0.92605 -0.07276,0 0.271608,-0.41672 0.765264,-0.92605 z m -63.743699,-4.25538 c 0.0127,-0.30822 0.0754,-0.37092 0.15985,-0.15985 0.0764,0.191 0.067,0.4192 -0.0209,0.50712 -0.0879,0.0879 -0.15046,-0.0684 -0.13897,-0.34727 z m 129.910422,-2.11666 c 0.0127,-0.30823 0.07539,-0.37092 0.159852,-0.15986 0.07643,0.191 0.06703,0.4192 -0.02089,0.50712 -0.08792,0.0879 -0.150453,-0.0684 -0.138964,-0.34726 z M -160.9576,734.71563 c 0.0127,-0.30822 0.0754,-0.37092 0.15985,-0.15985 0.0764,0.19099 0.067,0.4192 -0.0209,0.50712 -0.0879,0.0879 -0.15046,-0.0684 -0.13897,-0.34727 z m 129.93131,-1.43316 c 0,-0.3638 0.06005,-0.51263 0.133452,-0.33073 0.0734,0.1819 0.0734,0.47956 0,0.66146 -0.0734,0.1819 -0.133452,0.0331 -0.133452,-0.33073 z m -137.31875,-1.32292 c 0,-0.3638 0.0601,-0.51263 0.13345,-0.33073 0.0734,0.18191 0.0734,0.47956 0,0.66146 -0.0734,0.1819 -0.13345,0.0331 -0.13345,-0.33073 z m 80.920722,0.42928 c 0,-0.0549 0.20836,-0.26331 0.463021,-0.46303 0.419644,-0.3291 0.429002,-0.31974 0.0999,0.0999 -0.345644,0.44073 -0.562916,0.58089 -0.562916,0.36313 z m 275.960428,-1.05834 c 0,-0.0549 0.20836,-0.2633 0.46302,-0.46302 0.41964,-0.32911 0.429,-0.31975 0.0999,0.0999 -0.34564,0.44073 -0.56291,0.58088 -0.56291,0.36312 z M 88.473994,730.4559 c 0.190997,-0.0764 0.4192,-0.067 0.507119,0.0209 0.08792,0.0879 -0.06835,0.15046 -0.347266,0.13897 -0.308225,-0.0127 -0.370919,-0.0754 -0.159853,-0.15985 z m 85.305086,-13.11458 c 0.0328,-7.31242 0.092,-11.21171 0.13158,-8.6651 0.18417,11.85242 0.18749,21.96067 0.007,21.96055 -0.10914,-7e-5 -0.1716,-5.98302 -0.1388,-13.29545 z m -258.028398,11.60792 c 0,-0.0549 0.20836,-0.2633 0.463021,-0.46302 0.419644,-0.32911 0.429002,-0.31975 0.0999,0.0999 -0.345644,0.44073 -0.562916,0.58088 -0.562916,0.36312 z m -14.816667,-0.52916 c 0,-0.0549 0.20836,-0.26331 0.463021,-0.46303 0.419644,-0.3291 0.429002,-0.31974 0.0999,0.0999 -0.345644,0.44073 -0.562916,0.58089 -0.562916,0.36313 z m 290.777095,-0.52917 c 0,-0.0549 0.20836,-0.2633 0.46302,-0.46302 0.41964,-0.32911 0.429,-0.31975 0.0999,0.0999 -0.34564,0.44073 -0.56291,0.58089 -0.56291,0.36313 z m -14.4198,-0.95844 c 0.26339,-0.29104 0.53843,-0.52917 0.61119,-0.52917 0.0728,0 -0.0832,0.23813 -0.3466,0.52917 -0.26339,0.29104 -0.53842,0.52917 -0.61118,0.52917 -0.0728,0 0.0832,-0.23813 0.34659,-0.52917 z m -44.25156,-0.18238 c 0.25466,-0.0666 0.67138,-0.0666 0.92604,0 0.25466,0.0666 0.0463,0.121 -0.46302,0.121 -0.50932,0 -0.71768,-0.0544 -0.46302,-0.121 z m -214.378651,-0.97585 c 0,-0.0549 0.208359,-0.2633 0.463021,-0.46302 0.419644,-0.32911 0.429002,-0.31975 0.09989,0.0999 -0.345644,0.44073 -0.562916,0.58088 -0.562916,0.36312 z m 31.171225,-0.0808 c 0.190996,-0.0764 0.419199,-0.067 0.507118,0.0209 0.08792,0.0879 -0.06835,0.15046 -0.347266,0.13897 -0.308224,-0.0127 -0.370919,-0.0754 -0.159852,-0.15985 z m 244.789196,-0.97749 c 0,-0.0549 0.20836,-0.2633 0.46302,-0.46302 0.41965,-0.32911 0.42901,-0.31975 0.0999,0.0999 -0.34564,0.44073 -0.56292,0.58089 -0.56292,0.36313 z m -289.983338,-0.26458 c 0,-0.0549 0.208359,-0.26331 0.463021,-0.46303 0.419644,-0.3291 0.429002,-0.31974 0.0999,0.0999 -0.345644,0.44073 -0.562916,0.58089 -0.562916,0.36313 z m 276.357298,-1.48761 c 0.26339,-0.29104 0.53842,-0.52917 0.61118,-0.52917 0.0728,0 -0.0832,0.23813 -0.3466,0.52917 -0.26338,0.29104 -0.53842,0.52917 -0.61118,0.52917 -0.0728,0 0.0832,-0.23813 0.3466,-0.52917 z M -78.163901,722.3347 c 0,-0.0549 0.20836,-0.2633 0.463021,-0.46302 0.419644,-0.32911 0.429002,-0.31975 0.0999,0.0999 -0.345644,0.44073 -0.562916,0.58089 -0.562916,0.36313 z m 275.960421,-1.05833 c 0,-0.055 0.20836,-0.26331 0.46302,-0.46303 0.41965,-0.3291 0.42901,-0.31974 0.0999,0.0999 -0.34564,0.44073 -0.56292,0.58089 -0.56292,0.36313 z M 46.740324,720.69271 c 0.0127,-0.30822 0.07539,-0.37092 0.159853,-0.15985 0.07643,0.191 0.06703,0.4192 -0.02089,0.50712 -0.08792,0.0879 -0.150452,-0.0684 -0.138964,-0.34727 z m -138.0011,-0.63941 c 0.263389,-0.29104 0.53842,-0.52916 0.611181,-0.52916 0.07276,0 -0.08321,0.23812 -0.346598,0.52916 -0.263389,0.29105 -0.53842,0.52917 -0.611181,0.52917 -0.07276,0 0.08321,-0.23812 0.346598,-0.52917 z m 275.828136,-0.89364 c 0,-0.0549 0.20836,-0.2633 0.46302,-0.46302 0.41964,-0.32911 0.429,-0.31975 0.0999,0.0999 -0.34564,0.44073 -0.56291,0.58089 -0.56291,0.36313 z m -259.556261,-0.26458 c 0,-0.0549 0.20836,-0.26331 0.463021,-0.46303 0.419644,-0.3291 0.429002,-0.31974 0.0999,0.0999 -0.345644,0.44073 -0.562916,0.58089 -0.562916,0.36313 z m 89.185474,-1.37737 c 0.0127,-0.30822 0.07539,-0.37092 0.159853,-0.15985 0.07643,0.191 0.06703,0.4192 -0.02089,0.50712 -0.08792,0.0879 -0.150453,-0.0683 -0.138965,-0.34727 z m 31.042516,-0.97014 -0.504028,-0.59531 0.595312,0.50403 c 0.559447,0.47366 0.715762,0.6866 0.504028,0.6866 -0.05021,0 -0.318097,-0.26789 -0.595312,-0.59532 z m -129.437878,-0.39602 c 1.846801,-0.0454 4.942426,-0.0455 6.879167,-2.7e-4 1.93674,0.0453 0.425721,0.0824 -3.357821,0.0826 -3.783541,1.5e-4 -5.368147,-0.0369 -3.521346,-0.0823 z m 65.514068,8e-5 c 1.49933,-0.0472 3.88058,-0.047 5.291667,4.3e-4 1.411087,0.0475 0.184363,0.0861 -2.726053,0.0859 -2.910417,-2.3e-4 -4.064943,-0.0391 -2.565614,-0.0863 z m 134.672921,0 c 1.49933,-0.0472 3.88058,-0.047 5.29167,4.3e-4 1.41108,0.0475 0.18436,0.0861 -2.72606,0.0859 -2.91041,-2.3e-4 -4.06494,-0.0391 -2.56561,-0.0863 z m 74.9953,-1.9e-4 c 1.85539,-0.0455 4.89149,-0.0455 6.74688,0 1.85539,0.0455 0.33734,0.0827 -3.37344,0.0827 -3.71078,0 -5.22883,-0.0372 -3.37344,-0.0827 z m -135.425661,-7.27678 -0.504028,-0.59531 0.595313,0.50402 c 0.559447,0.47367 0.715761,0.6866 0.504028,0.6866 -0.05021,0 -0.318097,-0.26789 -0.595313,-0.59531 z m -15.251464,-5.14807 c 0.329118,-0.0633 0.805368,-0.0609 1.058333,0.005 0.252965,0.0662 -0.01631,0.118 -0.598397,0.11507 -0.582084,-0.003 -0.789055,-0.0571 -0.459936,-0.12041 z"
         id="path2592" /><path
         style="fill:#31c665"
         d="m 208.29337,757.18487 c -0.0979,-0.098 -0.1781,-12.04069 -0.1781,-26.53941 0,-20.15047 0.0748,-26.43613 0.3175,-26.67882 0.24111,-0.24111 4.87258,-0.31653 19.24844,-0.31345 10.41202,0.002 19.08034,0.0989 19.26295,0.21484 0.26342,0.16725 0.31808,5.70049 0.26458,26.78501 l -0.0674,26.57422 -19.33493,0.0679 c -10.63421,0.0373 -19.41507,-0.0123 -19.51302,-0.11024 z"
         id="path2591" /><path
         style="fill:#5c636d"
         d="m 68.25784,754.38299 -0.504028,-0.59531 0.595312,0.50403 c 0.559447,0.47366 0.715762,0.68659 0.504028,0.68659 -0.05021,0 -0.318097,-0.26789 -0.595312,-0.59531 z m 109.15471,-10.84792 c 1.09642,-1.16818 1.33397,-1.37824 1.33397,-1.17956 0,0.0425 -0.56554,0.60801 -1.25677,1.25677 l -1.25677,1.17956 z M 68.018395,736.98664 c 0.263389,-0.29104 0.53842,-0.52917 0.611181,-0.52917 0.07276,0 -0.08321,0.23813 -0.346598,0.52917 -0.263389,0.29104 -0.53842,0.52916 -0.611181,0.52916 -0.07276,0 0.08321,-0.23812 0.346598,-0.52916 z m -156.236463,-3.80406 c 0,-0.055 0.20836,-0.26331 0.463021,-0.46303 0.419644,-0.3291 0.429002,-0.31974 0.0999,0.0999 -0.345644,0.44073 -0.562916,0.58089 -0.562916,0.36313 z m 275.960428,-1.05834 c 0,-0.0549 0.20836,-0.2633 0.46302,-0.46302 0.41964,-0.32911 0.429,-0.31975 0.0999,0.0999 -0.34564,0.44073 -0.56291,0.58088 -0.56291,0.36312 z m -61.64792,-1.5875 c 0,-0.0549 0.20836,-0.2633 0.46302,-0.46302 0.41964,-0.32911 0.429,-0.31975 0.0999,0.0999 -0.34564,0.44073 -0.56291,0.58088 -0.56291,0.36312 z m 48.15417,-0.26458 c 0,-0.0549 0.20836,-0.2633 0.46302,-0.46302 0.41964,-0.32911 0.429,-0.31975 0.0999,0.0999 -0.34564,0.44073 -0.56291,0.58089 -0.56291,0.36313 z m -259.291678,-0.52917 c 0,-0.0549 0.20836,-0.2633 0.463021,-0.46302 0.419644,-0.32911 0.429002,-0.31975 0.09989,0.0999 -0.345644,0.44073 -0.562916,0.58088 -0.562916,0.36312 z m 275.960428,-1.05833 c 0,-0.0549 0.20836,-0.2633 0.46302,-0.46302 0.41964,-0.32911 0.429,-0.31975 0.0999,0.0999 -0.34564,0.44073 -0.56291,0.58089 -0.56291,0.36313 z m -288.79272,-1.48761 c 0.263389,-0.29104 0.538421,-0.52916 0.611181,-0.52916 0.07276,0 -0.08321,0.23812 -0.346597,0.52916 -0.263389,0.29105 -0.538421,0.52917 -0.611181,0.52917 -0.07276,0 0.08321,-0.23812 0.346597,-0.52917 z m 275.82813,-0.89364 c 0,-0.0549 0.20836,-0.2633 0.46302,-0.46302 0.41965,-0.32911 0.42901,-0.31975 0.0999,0.0999 -0.34564,0.44073 -0.56292,0.58089 -0.56292,0.36313 z m 15.875,-0.79375 c 0,-0.0549 0.20836,-0.2633 0.46302,-0.46302 0.41965,-0.32911 0.42901,-0.31975 0.0999,0.0999 -0.34564,0.44073 -0.56292,0.58089 -0.56292,0.36313 z M -94.171193,723.2283 c 0.263389,-0.29104 0.538421,-0.52916 0.611181,-0.52916 0.07276,0 -0.08321,0.23812 -0.346598,0.52916 -0.263389,0.29105 -0.53842,0.52917 -0.611181,0.52917 -0.07276,0 0.08321,-0.23812 0.346598,-0.52917 z m 15.213542,-0.0999 c 0,-0.0549 0.20836,-0.2633 0.463021,-0.46302 0.419644,-0.32911 0.429002,-0.31975 0.0999,0.0999 -0.345644,0.44073 -0.562916,0.58089 -0.562916,0.36313 z m -76.993749,-0.26458 c 0,-0.0549 0.20836,-0.26331 0.46302,-0.46303 0.41964,-0.3291 0.429,-0.31974 0.0999,0.0999 -0.34564,0.44073 -0.56291,0.58089 -0.56291,0.36313 z m 338.00521,-0.95844 c 0.26339,-0.29104 0.53843,-0.52917 0.61119,-0.52917 0.0728,0 -0.0832,0.23813 -0.3466,0.52917 -0.26339,0.29104 -0.53842,0.52916 -0.61118,0.52916 -0.0728,0 0.0832,-0.23812 0.34659,-0.52916 z m 14.94896,0.16469 c 0,-0.0549 0.20836,-0.26331 0.46302,-0.46303 0.41965,-0.3291 0.42901,-0.31974 0.0999,0.0999 -0.34564,0.44073 -0.56292,0.58089 -0.56292,0.36313 z m -351.89584,-0.26459 c 0,-0.0549 0.20836,-0.2633 0.46302,-0.46302 0.41965,-0.32911 0.429,-0.31975 0.0999,0.0999 -0.34565,0.44073 -0.56292,0.58088 -0.56292,0.36312 z m 147.3729212,-1.09073 c 0.3417743,-0.3638 0.6809391,-0.66146 0.7536995,-0.66146 0.07276,0 -0.1473419,0.29766 -0.4891162,0.66146 -0.3417743,0.3638 -0.6809391,0.66146 -0.7536995,0.66146 -0.072761,0 0.1473418,-0.29766 0.4891162,-0.66146 z m -28.8596092,-0.33073 -0.641433,-0.7276 0.727604,0.64143 c 0.400182,0.35279 0.727604,0.68021 0.727604,0.72761 0,0.2075 -0.214259,0.0386 -0.813775,-0.64144 z m -39.402893,-0.6952 c 0,-0.055 0.20836,-0.26331 0.463021,-0.46303 0.419644,-0.3291 0.429002,-0.31974 0.0999,0.0999 -0.345644,0.44073 -0.562916,0.58089 -0.562916,0.36313 z m -14.816667,-0.26459 c 0,-0.0549 0.20836,-0.2633 0.463021,-0.46302 0.419644,-0.32911 0.429002,-0.31975 0.0999,0.0999 -0.345644,0.44073 -0.562916,0.58088 -0.562916,0.36312 z m 290.777088,-0.79375 c 0,-0.0549 0.20836,-0.2633 0.46302,-0.46302 0.41965,-0.32911 0.42901,-0.31975 0.0999,0.0999 -0.34564,0.44073 -0.56292,0.58088 -0.56292,0.36312 z m -14.41979,-0.69385 c 0.26339,-0.29104 0.53842,-0.52917 0.61118,-0.52917 0.0728,0 -0.0832,0.23813 -0.3466,0.52917 -0.26338,0.29104 -0.53842,0.52916 -0.61118,0.52916 -0.0728,0 0.0832,-0.23812 0.3466,-0.52916 z"
         id="path2590" /><path
         style="fill:#38414d"
         d="m -198.10183,757.75622 c -4.55803,-1.25303 -7.88504,-4.57935 -9.04865,-9.04677 -0.50737,-1.9479 -0.50298,-4.58122 0.0109,-6.55419 1.78692,-6.86044 8.60805,-10.20949 23.73765,-11.65473 0.98226,-0.0938 1.78593,-0.22656 1.78593,-0.29497 0,-0.36889 -0.84327,-1.64521 -1.49773,-2.26687 -1.16898,-1.11038 -2.63664,-1.59512 -5.25886,-1.7369 -2.98911,-0.16161 -5.54166,0.43511 -9.84337,2.3011 -1.65947,0.71984 -3.15749,1.25227 -3.32894,1.18318 -0.17145,-0.0691 -1.30168,-1.97537 -2.51164,-4.23617 -1.8851,-3.52232 -2.15014,-4.17137 -1.85208,-4.53562 0.4532,-0.55385 5.02323,-2.70455 7.88846,-3.71238 3.98005,-1.39996 6.28929,-1.76779 11.1125,-1.77005 3.76512,-0.002 4.65513,0.0813 6.47036,0.60398 6.23961,1.79658 9.9664,5.58546 11.56642,11.75909 0.53201,2.05276 0.57174,2.96252 0.67937,15.55677 0.0984,11.51859 0.0605,13.42117 -0.27307,13.69802 -0.28154,0.23365 -1.78777,0.30183 -5.51263,0.24952 l -5.12525,-0.072 -0.35322,-1.5875 c -0.54765,-2.46125 -0.44035,-2.36116 -1.69522,-1.58143 -2.10703,1.30921 -6.41257,3.248 -8.15492,3.67218 -2.11021,0.51373 -6.96915,0.52793 -8.79602,0.0257 z m 11.49704,-10.70744 c 0.92483,-0.28665 2.45542,-1.03079 3.4013,-1.65364 l 1.71979,-1.13246 v -2.64583 -2.64584 l -1.4552,0.0796 c -2.36086,0.12915 -6.09096,0.80901 -7.92793,1.44497 -3.04235,1.05328 -4.55145,3.19989 -3.69803,5.26023 0.72993,1.7622 4.4806,2.37143 7.96007,1.29296 z m 42.55964,10.60115 c -8.43819,-1.86169 -14.07592,-7.08542 -16.16158,-14.97475 -0.75045,-2.83872 -0.81899,-8.40233 -0.13689,-11.1125 1.97233,-7.8366 8.25786,-13.63662 16.95993,-15.64988 1.62172,-0.3752 3.10654,-0.48449 6.35,-0.46742 3.81257,0.0201 4.46871,0.0938 6.60152,0.74183 4.09177,1.24323 9.15876,4.33668 8.76863,5.35333 -0.31562,0.8225 -5.75651,7.77318 -6.08473,7.77318 -0.19677,0 -1.05681,-0.42171 -1.91118,-0.93714 -2.49852,-1.5073 -4.69028,-2.05352 -7.71952,-1.92384 -3.30196,0.14137 -5.24787,0.95885 -7.20283,3.02592 -2.14128,2.26409 -2.50606,3.31844 -2.50606,7.24339 0,3.09241 0.0499,3.41545 0.76866,4.97192 2.78736,6.03633 10.47622,7.31536 17.71836,2.94741 0.97922,-0.59059 1.9721,-1.03647 2.2064,-0.99083 0.44368,0.0864 5.36804,7.49674 5.36804,8.07799 0,0.54179 -2.81289,2.58576 -5.157,3.74732 -3.70497,1.83588 -6.45337,2.457 -11.37946,2.57169 -3.43214,0.0799 -4.65897,0.005 -6.48229,-0.39762 z m 89.69375,0.12224 c -6.994403,-1.48055 -12.233967,-5.34462 -15.059924,-11.10638 -1.669838,-3.40458 -1.983001,-4.94461 -1.995142,-9.81144 -0.0091,-3.65367 0.07288,-4.52154 0.598819,-6.33808 2.049175,-7.07769 7.450484,-12.37358 14.778622,-14.4902 1.730882,-0.49994 2.709967,-0.59901 5.910958,-0.59811 4.427265,10e-4 6.026395,0.33653 9.49707,1.99122 6.710315,3.19925 10.523523,11.27606 9.540654,20.20819 -0.16026,1.45641 -0.349147,2.74149 -0.41975,2.85573 -0.0706,0.11424 -6.02296,0.2077 -13.22746,0.2077 h -13.09909 l 0.17754,0.59532 c 1.792069,6.00901 9.341246,8.21906 17.359297,5.082 3.804874,-1.48866 3.437944,-1.66065 5.852414,2.74316 1.661466,3.03038 2.015651,3.86549 1.766662,4.1655 -0.859187,1.03526 -5.446542,3.08557 -9.154483,4.09159 -2.690452,0.72995 -9.889084,0.96201 -12.526187,0.4038 z m 11.087009,-26.99962 c -0.410854,-2.19919 -1.58863,-3.70088 -3.542878,-4.51723 -1.45898,-0.60946 -4.398969,-0.60703 -6.212745,0.005 -1.874197,0.63255 -3.971034,2.66918 -4.575974,4.44458 l -0.42746,1.25452 h 7.490407 7.490406 z m 117.57049,26.97287 c -2.131804,-0.57412 -3.996912,-1.63141 -5.636257,-3.19508 -2.759559,-2.63217 -3.821172,-5.47412 -3.633399,-9.72663 0.157832,-3.57445 0.793301,-5.19983 2.923074,-7.47657 1.316851,-1.40772 2.097657,-1.95906 4.292776,-3.03123 3.976964,-1.94247 8.196795,-2.89823 16.866623,-3.82016 0.836745,-0.089 1.521355,-0.27818 1.521355,-0.42046 0,-0.644 -0.905312,-1.8974 -1.880923,-2.60413 -1.425571,-1.03268 -3.504356,-1.43551 -6.453453,-1.25058 -2.664729,0.1671 -4.547753,0.71451 -8.550214,2.48559 -1.577591,0.69808 -2.827379,1.10902 -2.961607,0.97379 -0.44428,-0.44758 -4.495471,-8.08224 -4.495471,-8.47192 0,-0.51898 5.144321,-2.97836 8.73125,-4.17422 5.073701,-1.69154 10.461321,-2.16746 15.193934,-1.34216 5.677647,0.9901 9.915103,3.95967 12.044153,8.44044 1.73733,3.65638 1.73379,3.61745 1.73379,19.07224 v 14.02292 l -5.188585,0.0716 c -3.951478,0.0545 -5.251082,-0.009 -5.450705,-0.26459 -0.144166,-0.18491 -0.398909,-1.04064 -0.566096,-1.90164 -0.167186,-0.86099 -0.350505,-1.61197 -0.407376,-1.66884 -0.05687,-0.0569 -0.794262,0.33853 -1.638648,0.87868 -2.206613,1.41155 -5.121256,2.7024 -7.44205,3.29596 -2.415936,0.61789 -6.906891,0.67126 -9.002171,0.10697 z m 12.497713,-11.0632 c 0.873125,-0.40167 2.153047,-1.09304 2.844271,-1.53637 l 1.256771,-0.80604 v -2.73391 -2.73391 l -0.859896,0.10416 c -0.472943,0.0573 -1.99099,0.24139 -3.373438,0.40913 -5.595568,0.67891 -8.641281,2.31188 -8.91974,4.78237 -0.17472,1.55011 0.214429,2.25725 1.5989,2.90546 1.679574,0.78636 5.307756,0.59608 7.453132,-0.39089 z m -340.210082,10.50094 c -0.097,-0.097 -0.17639,-12.10958 -0.17639,-26.6946 0,-23.93708 0.0407,-26.53386 0.41852,-26.67882 0.73285,-0.28123 11.75137,-0.17973 12.29888,0.11329 0.4918,0.26321 0.51177,0.65549 0.51177,10.05417 v 9.78027 h 6.35 6.35 v -9.89357 c 0,-8.77756 0.0472,-9.91168 0.41852,-10.05416 0.73285,-0.28123 11.75137,-0.17973 12.29888,0.11329 0.5007,0.26797 0.51177,0.84246 0.51177,26.55823 0,21.97945 -0.0596,26.33378 -0.36381,26.58627 -0.2553,0.21188 -2.20854,0.28073 -6.54844,0.23083 l -6.18463,-0.0711 -0.0691,-10.78177 -0.0691,-10.78177 h -6.34704 -6.34703 v 10.68732 c 0,9.50136 -0.0464,10.70514 -0.41851,10.84791 -0.57186,0.21944 -12.41384,0.20464 -12.63427,-0.0158 z m 139.17543,0.005 c -0.0995,-0.0995 -0.18098,-12.04358 -0.18098,-26.5423 0,-20.15047 0.0748,-26.43613 0.3175,-26.67882 0.48256,-0.48256 12.20953,-0.44785 12.61219,0.0373 0.2055,0.24761 0.31523,4.34401 0.36313,13.55539 l 0.0686,13.20056 6.733212,-7.20539 6.733212,-7.20539 h 6.943361 c 4.306551,0 7.004968,0.0997 7.105588,0.26248 0.08922,0.14437 0.06649,0.43344 -0.05053,0.64237 -0.117017,0.20893 -3.46644,3.90897 -7.443163,8.22231 l -7.230406,7.84244 1.313795,1.90009 c 0.722587,1.04506 4.302917,6.18635 7.956288,11.4251 4.136592,5.93166 6.618188,9.72463 6.578069,10.05416 -0.0623,0.51172 -0.28897,0.5315 -6.872186,0.59977 l -6.807761,0.0706 -5.058138,-7.58032 -5.058139,-7.58031 -2.482227,2.47191 -2.482225,2.4719 -0.0717,5.03781 -0.0717,5.0378 -6.36746,0.0707 c -3.5021,0.0389 -6.4489,-0.0107 -6.54844,-0.11024 z m 92.697083,-0.33998 c -0.296148,-0.55336 -0.405723,-39.31807 -0.113293,-40.08013 0.139164,-0.36265 0.879141,-0.41851 5.544261,-0.41851 h 5.383662 l 0.138479,0.85989 c 0.176229,1.0943 0.6775183,5.50879 0.6785038,5.97508 4.099e-4,0.19398 0.8994508,-0.60264 1.9978687,-1.77027 3.9258698,-4.17322 8.39122689,-6.12304 14.022649,-6.12304 1.1903388,0 2.7500545,0.1111 3.4660349,0.24688 1.8971396,0.35979 4.3391426,1.32979 4.5174276,1.79439 0.08487,0.22116 -0.295303,2.31194 -0.844825,4.64616 -1.322243,5.61652 -1.417635,5.93871 -1.80196,6.08619 -0.180976,0.0694 -1.160916,-0.0904 -2.1776443,-0.3553 -2.7835791,-0.72513 -6.9092602,-0.67634 -9.12463867,0.1079 -3.18704133,1.12821 -5.56470543,3.13514 -7.43367963,6.27459 l -1.0329873,1.73518 v 10.44888 c 0,7.77413 -0.081275,10.53016 -0.3175,10.76638 -0.2287481,0.22875 -2.0381631,0.3175 -6.4729831,0.3175 -5.814956,0 -6.170634,-0.0283 -6.429375,-0.51177 z m 41.706664,0.33538 c -0.09701,-0.097 -0.176388,-12.10958 -0.176388,-26.6946 0,-23.93708 0.04074,-26.53386 0.418514,-26.67882 0.687326,-0.26376 17.693188,-0.18044 21.434963,0.10501 4.18961,0.31962 6.920857,0.97986 9.854035,2.38207 5.310715,2.53879 8.226664,7.62153 8.239978,14.36295 0.01238,6.26852 -2.439479,11.24718 -7.023001,14.26068 -0.93701,0.61605 -1.703655,1.20274 -1.703655,1.30376 0,0.10102 2.504578,4.62991 5.56573,10.06419 3.19357,5.66937 5.533498,10.10606 5.490104,10.40969 -0.07348,0.51414 -0.277223,0.52917 -7.174173,0.52917 h -7.098547 l -4.939995,-9.31965 -4.939995,-9.31966 -2.447395,-0.007 -2.447396,-0.007 v 9.0752 c 0,6.70572 -0.0829,9.15811 -0.3175,9.39271 -0.343804,0.34381 -12.39901,0.47738 -12.735279,0.14111 z m 21.043402,-29.75021 c 2.117253,-0.44286 3.848844,-1.48292 4.59843,-2.76199 1.329866,-2.26925 1.362893,-5.76988 0.07155,-7.58341 -0.315786,-0.44348 -1.239778,-1.11689 -2.053316,-1.49648 -1.379903,-0.64385 -1.785422,-0.69659 -6.043222,-0.78598 l -4.564062,-0.0958 v 6.50847 6.50847 h 3.294268 c 1.811848,0 3.925208,-0.13197 4.696355,-0.29327 z m 71.948171,29.57145 c -0.22249,-0.26808 -0.28461,-5.67811 -0.23474,-20.44376 l 0.0678,-20.07921 5.46531,-0.0714 5.46531,-0.0714 0.30648,1.92352 c 0.16857,1.05794 0.35503,2.07351 0.41436,2.25682 0.0683,0.21116 0.79804,-0.19996 1.99123,-1.12187 3.65019,-2.82028 7.2291,-4.09633 11.49273,-4.09771 5.58582,-0.002 9.47961,2.22556 11.601,6.6361 1.89424,3.9383 1.89263,3.92084 1.89269,20.47518 l 6e-5,14.81667 -6.18462,0.0711 c -4.3399,0.0499 -6.29315,-0.019 -6.54844,-0.23083 -0.29932,-0.24841 -0.36381,-2.52185 -0.36381,-12.82423 0,-8.10668 -0.10261,-13.00072 -0.29099,-13.87908 -0.60308,-2.81211 -2.86391,-4.06924 -6.20676,-3.45129 -1.63254,0.3018 -2.59737,0.81625 -4.53792,2.41966 l -1.26746,1.04726 -0.13229,13.42371 -0.13229,13.4237 -6.24756,0.0708 c -5.0496,0.0573 -6.30557,9.5e-4 -6.55011,-0.29371 z m 47.64795,0.0423 c -0.46475,-0.46475 -0.46932,-52.61541 -0.005,-53.08007 0.33556,-0.33556 11.65705,-0.47775 12.49315,-0.1569 0.37397,0.1435 0.41852,1.57973 0.41852,13.49375 0,7.33323 0.0893,13.32891 0.19844,13.32373 0.10914,-0.005 3.175,-3.21691 6.81302,-7.1372 l 6.61458,-7.12778 7.00795,0.0596 c 5.98784,0.0509 7.01882,0.11737 7.08264,0.45647 0.0411,0.21829 -3.25573,4.01478 -7.32625,8.43667 l -7.40095,8.03979 1.1449,1.6175 c 8.10039,11.44413 14.71691,21.24867 14.6509,21.71012 -0.0761,0.53176 -0.24091,0.54658 -6.84722,0.61541 l -6.76928,0.0705 -4.87238,-7.3124 c -2.67982,-4.02183 -4.95815,-7.44684 -5.06297,-7.61115 -0.11975,-0.18771 -1.12566,0.63147 -2.70646,2.20407 l -2.51588,2.50282 -0.0717,5.03781 -0.0717,5.0378 -6.22629,0.0708 c -4.62047,0.0525 -6.30937,-0.0123 -6.54843,-0.25135 z"
         id="path2589" /></g></g></svg>
