<?xml version="1.0" encoding="UTF-8" standalone="no"?>
<!-- Created with Inkscape (http://www.inkscape.org/) -->

<svg
   width="952.57269mm"
   height="358.00876mm"
   viewBox="0 0 952.57269 358.00876"
   version="1.1"
   id="svg1"
   xml:space="preserve"
   inkscape:version="1.3.2 (091e20e, 2023-11-25, custom)"
   sodipodi:docname="udemy.svg"
   xmlns:inkscape="http://www.inkscape.org/namespaces/inkscape"
   xmlns:sodipodi="http://sodipodi.sourceforge.net/DTD/sodipodi-0.dtd"
   xmlns="http://www.w3.org/2000/svg"
   xmlns:svg="http://www.w3.org/2000/svg"><sodipodi:namedview
     id="namedview1"
     pagecolor="#ffffff"
     bordercolor="#000000"
     borderopacity="0.25"
     inkscape:showpageshadow="2"
     inkscape:pageopacity="0.0"
     inkscape:pagecheckerboard="0"
     inkscape:deskcolor="#d1d1d1"
     inkscape:document-units="mm"
     inkscape:export-bgcolor="#ffffff00"
     inkscape:zoom="0.12236355"
     inkscape:cx="849.92631"
     inkscape:cy="-641.53092"
     inkscape:window-width="1920"
     inkscape:window-height="991"
     inkscape:window-x="-9"
     inkscape:window-y="-9"
     inkscape:window-maximized="1"
     inkscape:current-layer="layer1" /><defs
     id="defs1" /><g
     inkscape:label="Layer 1"
     inkscape:groupmode="layer"
     id="layer1"
     transform="translate(450.61267,-581.57215)"><text
       xml:space="preserve"
       style="font-size:4.58611px;white-space:pre;inline-size:12.9248;display:inline;fill:#000000;stroke:none;stroke-width:900;stroke-dasharray:none;stroke-opacity:1;paint-order:normal"
       x="63.260616"
       y="26.947876"
       id="text1"><tspan
         x="63.260616"
         y="26.947876"
         id="tspan4"><tspan
           dx="0 2.9021478 2.9021478 2.9021482 2.9021473"
           id="tspan3">huhuh</tspan></tspan></text><text
       xml:space="preserve"
       style="font-style:normal;font-variant:normal;font-weight:normal;font-stretch:normal;font-size:14.1111px;font-family:Candara;-inkscape-font-specification:Candara;fill:#000000;stroke:none;stroke-width:899.999;stroke-dasharray:none;stroke-opacity:1;paint-order:normal"
       x="82.372589"
       y="25.992279"
       id="text2"><tspan
         sodipodi:role="line"
         id="tspan2"
         style="font-style:normal;font-variant:normal;font-weight:normal;font-stretch:normal;font-size:14.1111px;font-family:Candara;-inkscape-font-specification:Candara;stroke-width:900"
         x="82.372589"
         y="25.992279" /></text><path
       style="fill:#000000"
       id="path753"
       d="" /><path
       style="fill:#000000"
       id="path752"
       d="" /><g
       id="g754"
       transform="translate(-21.405405,365.42085)"><path
         style="fill:#010101;stroke:none"
         d="m -130.15538,275.41414 v 76.46458 c -22.15685,-19.57594 -57.38961,-23.24012 -84.13749,-11.79315 -13.1991,5.64869 -24.99429,15.66384 -33.22153,27.40356 -21.59558,30.81537 -20.08917,76.5607 3.53655,105.83333 7.87047,9.7516 18.17168,17.5997 29.68498,22.56387 12.21501,5.26686 26.19165,7.32048 39.42291,6.05609 11.46061,-1.09522 22.38123,-3.63214 32.54375,-9.26869 4.39427,-2.43719 8.02099,-5.7583 12.17083,-8.50335 v 14.55208 h 38.364585 V 275.41414 H -130.15538 M 82.569613,470.67663 c -7.087616,-3.75959 -13.927379,-8.01495 -20.902082,-11.98054 -1.87101,-1.06389 -5.499729,-4.27118 -7.662517,-4.17784 -2.039733,0.088 -5.190122,3.79783 -6.889566,4.9548 -5.042069,3.43273 -10.537405,6.20014 -16.404166,7.91631 -24.1155485,7.05403 -54.686937,-0.97074 -63.323618,-26.87523 -1.184489,-3.55269 -2.215304,-7.34258 -2.293045,-11.1125 h 125.14791 c 4.007055,-31.70452 -5.797385,-64.17786 -32.808332,-83.2276 -27.232251,-19.20587 -69.564031,-17.82701 -96.572911,1.13287 -17.031744,11.95606 -28.278214,30.01232 -32.278971,50.34473 -5.591067,28.41467 -0.19327,61.33308 21.431055,82.01043 6.50926,6.22423 14.047753,11.25571 22.224999,15.01 8.895516,4.08399 18.6075192,6.29994 28.31041478,7.2701 23.16899822,2.31652 46.71316722,-2.33151 65.88124622,-15.9967 3.778452,-2.6937 7.115586,-5.78349 10.583333,-8.84326 1.902145,-1.67845 4.726197,-3.98386 5.55625,-6.42557 M 148.18628,353.7308 h -0.26459 v -16.40417 h -38.1 v 161.39583 h 38.1 v -69.32083 c 0,-12.16567 -1.78826,-25.85811 2.02927,-37.57083 5.88756,-18.06401 26.66504,-30.64471 44.27281,-19.29094 12.87221,8.3002 13.75834,24.08276 13.75834,37.81177 v 88.37083 h 38.09999 v -69.05625 c 0,-12.59819 -1.66133,-26.51104 2.38125,-38.62916 5.97787,-17.91932 27.84617,-29.95877 44.97917,-18.32343 12.88358,8.74947 13.49375,24.41001 13.49375,38.43176 v 87.57708 h 38.36458 v -79.11041 c 0,-17.32504 1.36206,-35.06905 -4.87503,-51.59375 -2.34456,-6.21177 -5.68008,-12.1864 -10.13051,-17.14915 -17.95026,-20.01647 -50.40158,-20.95014 -73.62987,-10.28587 -8.76058,4.02204 -15.51372,10.39039 -22.225,17.11627 -1.56212,-5.27358 -6.89661,-10.14059 -11.00411,-13.50047 -16.00438,-13.09151 -42.58409,-13.34434 -60.1688,-3.27977 -4.99188,2.85712 -12.50841,7.40375 -15.08125,12.81149 m -577.32081,-16.40417 v 78.84583 c 0,17.04509 -1.22919,34.73005 6.41839,50.53542 13.08851,27.05028 43.41005,37.22976 71.63369,35.99373 24.0682,-1.05401 48.42369,-10.38961 61.22368,-32.02498 9.57846,-16.1901 8.62632,-34.83515 8.62632,-52.91667 v -80.43333 h -38.62917 v 71.96667 c 0,12.78927 1.805,26.96747 -3.72642,38.89375 -11.64334,25.10415 -48.93501,25.27978 -62.2863,1.85208 -6.42251,-11.26973 -4.63102,-25.65192 -4.63102,-38.1 v -74.6125 h -38.62917 m 778.40413,0 c 0.66423,3.85817 2.93987,7.74966 4.39217,11.37709 3.18256,7.94906 6.45122,15.86259 9.63074,23.8125 11.65905,29.1517 23.51181,58.23249 35.34927,87.31249 3.7676,9.25564 7.55871,18.50262 11.27024,27.78125 1.63678,4.092 4.32725,8.59134 5.1586,12.91962 0.25799,1.3432 -0.88309,3.08018 -1.39578,4.2783 -1.39882,3.26892 -2.80623,6.54714 -4.26395,9.78958 -4.19387,9.32837 -8.70574,20.72735 -19.39546,24.14426 -6.44754,2.06086 -14.21625,0.99115 -20.90208,0.99115 v 34.39584 c 17.93301,0 36.09579,1.21323 50.53541,-11.45279 12.55137,-11.0098 19.70926,-26.90262 26.04143,-41.99304 4.63325,-11.04158 9.38974,-22.03148 14.02292,-33.07292 13.93597,-33.21128 28.06637,-66.34801 42.18147,-99.48333 4.91849,-11.54613 9.84797,-23.08806 14.70394,-34.66041 2.24476,-5.34948 4.90746,-10.64373 6.7669,-16.13959 h -28.575 -7.67291 c -0.88108,0 -2.27635,-0.25379 -3.0431,0.27195 -1.88179,1.29043 -2.81772,6.13083 -3.68375,8.19472 -3.02546,7.21003 -6.02483,14.43943 -8.93641,21.69583 -7.94958,19.81223 -16.14979,39.53247 -24.29167,59.26667 -2.65429,6.43345 -5.34973,12.8527 -7.93465,19.31458 -1.14309,2.85751 -2.9829,5.94892 -3.43959,8.99583 -4.70016,-8.82582 -7.71399,-19.02067 -11.42992,-28.31041 -7.65315,-19.13262 -15.25992,-38.28197 -22.91307,-57.41458 l -9.20751,-23.01875 c -0.85518,-2.13779 -1.87741,-7.34955 -3.73026,-8.72389 -0.72231,-0.53575 -2.14412,-0.27195 -2.99007,-0.27195 H 378.10918 349.2696 M 51.877948,399.50371 h -85.724996 c 0.190525,-9.23845 6.733988,-17.68393 13.49375,-23.30439 17.06501,-14.18892 43.493951,-14.48257 60.324996,-0.0506 6.837664,5.86307 11.905281,14.13369 11.90625,23.35496 m -229.922908,-30.8807 c 6.20305,-0.73206 13.83323,0.97894 19.57917,3.25852 5.51901,2.18953 10.77034,5.25433 15.08125,9.37637 4.67765,4.47266 8.84513,9.40633 11.55998,15.33543 10.73772,23.45063 1.81246,51.86808 -20.55581,64.66982 -5.37426,3.07578 -11.57139,5.00409 -17.72709,5.66542 -12.69589,1.36412 -25.46065,-1.24864 -35.72915,-9.11217 -22.71678,-17.39642 -25.01326,-54.43421 -5.27086,-74.98121 9.24365,-9.62041 20.337,-12.71027 33.06251,-14.21218 z"
         id="path755" /><path
         style="fill:#a335ef;stroke:none"
         d="m -429.13453,301.3433 c 6.76245,-2.4618 13.37002,-7.46278 19.57917,-11.10965 11.41199,-6.70276 22.92097,-13.25191 34.39583,-19.8466 4.7669,-2.73956 9.51255,-5.516 14.2875,-8.24187 1.49372,-0.85272 3.95924,-3.03386 5.70855,-3.05924 1.68895,-0.0245 4.22164,2.20212 5.66853,3.02475 4.77875,2.71701 9.51331,5.51148 14.2875,8.23657 12.4712,7.11856 24.823,14.44783 37.30625,21.54533 5.46066,3.10472 10.87366,7.02528 16.66875,9.45071 1.23894,-9.93305 0.13229,-20.67651 0.13229,-30.69166 v -8.20208 c 0,-1.07113 0.29018,-2.66916 -0.21517,-3.64784 -0.65905,-1.27628 -2.96141,-2.04717 -4.15045,-2.75526 -3.67323,-2.18753 -7.41486,-4.26311 -11.1125,-6.40917 -13.91769,-8.07761 -27.82248,-16.18887 -41.80417,-24.15511 -4.07052,-2.31924 -8.09908,-4.71147 -12.17083,-7.02774 -1.26661,-0.7205 -3.2436,-2.42188 -4.7625,-2.29657 -1.32889,0.10962 -2.83316,1.38597 -3.96875,2.03199 -2.9238,1.66327 -5.8099,3.39391 -8.73125,5.06157 -10.52493,6.00829 -21.00384,12.10043 -31.48542,18.18378 -6.95613,4.03722 -13.91714,8.07127 -20.90208,12.0583 -2.24564,1.28184 -7.04897,2.95318 -8.45931,5.12734 -0.5473,0.84368 -0.27194,2.34017 -0.27194,3.29954 v 8.20208 z"
         id="path754" /></g></g></svg>
