<?xml version="1.0" encoding="UTF-8" standalone="no"?>
<!-- Created with Inkscape (http://www.inkscape.org/) -->

<svg
   width="356.30032mm"
   height="335.31448mm"
   viewBox="0 0 356.30032 335.31448"
   version="1.1"
   id="svg1"
   xml:space="preserve"
   inkscape:version="1.3.2 (091e20e, 2023-11-25, custom)"
   sodipodi:docname="w3school.svg"
   xmlns:inkscape="http://www.inkscape.org/namespaces/inkscape"
   xmlns:sodipodi="http://sodipodi.sourceforge.net/DTD/sodipodi-0.dtd"
   xmlns="http://www.w3.org/2000/svg"
   xmlns:svg="http://www.w3.org/2000/svg"><sodipodi:namedview
     id="namedview1"
     pagecolor="#ffffff"
     bordercolor="#000000"
     borderopacity="0.25"
     inkscape:showpageshadow="2"
     inkscape:pageopacity="0.0"
     inkscape:pagecheckerboard="0"
     inkscape:deskcolor="#d1d1d1"
     inkscape:document-units="mm"
     inkscape:export-bgcolor="#ffffff00"
     inkscape:zoom="0.34609638"
     inkscape:cx="-170.47274"
     inkscape:cy="197.92175"
     inkscape:window-width="1920"
     inkscape:window-height="991"
     inkscape:window-x="-9"
     inkscape:window-y="-9"
     inkscape:window-maximized="1"
     inkscape:current-layer="layer1" /><defs
     id="defs1" /><g
     inkscape:label="Layer 1"
     inkscape:groupmode="layer"
     id="layer1"
     transform="translate(-10.509488,-576.76835)"><text
       xml:space="preserve"
       style="font-size:4.58611px;white-space:pre;inline-size:12.9248;display:inline;fill:#000000;stroke:none;stroke-width:900;stroke-dasharray:none;stroke-opacity:1;paint-order:normal"
       x="63.260616"
       y="26.947876"
       id="text1"><tspan
         x="63.260616"
         y="26.947876"
         id="tspan4"><tspan
           dx="0 2.9021478 2.9021478 2.9021482 2.9021473"
           id="tspan3">huhuh</tspan></tspan></text><text
       xml:space="preserve"
       style="font-style:normal;font-variant:normal;font-weight:normal;font-stretch:normal;font-size:14.1111px;font-family:Candara;-inkscape-font-specification:Candara;fill:#000000;stroke:none;stroke-width:899.999;stroke-dasharray:none;stroke-opacity:1;paint-order:normal"
       x="82.372589"
       y="25.992279"
       id="text2"><tspan
         sodipodi:role="line"
         id="tspan2"
         style="font-style:normal;font-variant:normal;font-weight:normal;font-stretch:normal;font-size:14.1111px;font-family:Candara;-inkscape-font-specification:Candara;stroke-width:900"
         x="82.372589"
         y="25.992279" /></text><path
       style="fill:#000000"
       id="path753"
       d="" /><path
       style="fill:#000000"
       id="path752"
       d="" /><path
       style="fill:#04aa6d;fill-opacity:1"
       d="m 28.001031,911.9582 c -5.86737,-0.52426 -11.74016,-3.7991 -14.48649,-8.07812 -1.116433,-1.73949 -2.211303,-4.98233 -2.211303,-6.54953 v -1.21012 h 5.402933 5.40294 l 0.1856,0.85989 c 0.76143,3.52768 3.85878,5.63459 8.19082,5.57166 4.61326,-0.067 7.54062,-2.22874 7.54062,-5.56839 0,-1.24571 -0.41345,-2.16965 -1.31077,-2.92915 -0.87226,-0.73829 -2.70784,-1.37227 -7.42048,-2.56292 -5.67012,-1.43255 -8.31328,-2.3913 -10.51415,-3.81379 -4.25367,-2.74928 -6.203083,-6.32673 -6.212603,-11.40105 -0.008,-4.05643 1.263593,-6.83548 4.471153,-9.77462 1.89491,-1.73635 5.02437,-3.41283 7.75769,-4.15587 2.43094,-0.66085 8.67292,-0.65752 11.24479,0.006 2.46579,0.63615 6.32191,2.53076 7.84347,3.85369 2.36332,2.05482 4.01951,5.32605 4.35515,8.60214 l 0.17758,1.73324 h -5.58259 -5.58259 l -0.30157,-1.11993 c -0.4305,-1.59876 -2.11965,-3.20615 -3.93608,-3.74557 -1.79648,-0.5335 -2.98305,-0.53799 -4.73429,-0.0179 -3.35742,0.99704 -4.99861,4.50127 -3.25499,6.94996 0.87611,1.23038 2.82019,2.04441 8.56854,3.58784 6.59352,1.77035 8.73939,2.62869 11.16106,4.46438 2.13366,1.61738 3.59563,3.59976 4.44025,6.02084 0.84171,2.41273 0.82757,6.59467 -0.0297,8.79357 -2.80331,7.1902 -11.24237,11.37037 -21.16495,10.48378 z m 55.53346,0.006 c -4.62509,-0.38179 -8.79913,-1.81966 -12.57435,-4.33161 -5.62244,-3.74104 -9.08016,-8.92459 -10.50339,-15.74588 -0.6713,-3.21742 -0.537,-8.2898 0.30473,-11.50938 2.76834,-10.58881 12.14417,-17.92951 23.71496,-18.56737 6.59081,-0.36333 12.35354,1.4402 17.389899,5.44241 1.06408,0.84558 2.31833,2.0218 2.78721,2.61382 l 0.85252,1.0764 -4.16853,3.29827 -4.168539,3.29828 -1.39336,-1.27346 c -2.57707,-2.35529 -5.56948,-3.42269 -9.59532,-3.42269 -4.12537,0 -7.05807,1.07915 -9.77928,3.59851 -1.81824,1.68337 -2.96037,3.36962 -3.75554,5.54469 -0.46064,1.26 -0.57724,2.18677 -0.59648,4.74114 -0.0291,3.86623 0.5179,5.74 2.49938,8.56153 4.71208,6.70977 15.04789,7.81492 21.34656,2.28247 l 1.38026,-1.21235 4.135019,3.31679 4.13501,3.3168 -1.67882,1.75217 c -5.070399,5.29194 -12.353589,7.87805 -20.331939,7.21946 z m 115.093739,1.2e-4 c -11.44782,-1.01974 -20.25568,-8.98938 -22.37283,-20.24367 -0.59135,-3.14353 -0.40967,-8.60266 0.38632,-11.6079 2.50651,-9.46324 10.08043,-16.24494 20.10294,-18.0002 6.64148,-1.16313 14.05604,0.42282 19.61065,4.19466 1.75839,1.19403 4.66322,4.05815 5.95143,5.86804 6.41102,9.00721 5.99177,22.05205 -0.98757,30.72787 -5.15804,6.41181 -13.78029,9.85495 -22.69094,9.0612 z m 5.79621,-11.2246 c 6.26068,-1.47575 10.43911,-7.02597 10.44947,-13.8801 0.007,-4.33797 -1.53752,-7.9122 -4.61057,-10.67249 -4.1625,-3.73888 -10.26933,-4.46214 -15.46412,-1.83151 -1.75294,0.88769 -4.31771,3.5254 -5.36459,5.51717 -2.27852,4.33505 -2.17363,10.37949 0.25378,14.62456 2.86792,5.01543 8.97177,7.6011 14.73603,6.24237 z m 55.71941,11.24459 c -11.21242,-0.94335 -20.1449,-8.84498 -22.41646,-19.82949 -0.68472,-3.31107 -0.54807,-8.8592 0.29658,-12.04207 2.51256,-9.46791 10.08171,-16.24498 20.10402,-18.0002 6.64148,-1.16313 14.05604,0.42282 19.61066,4.19466 1.75888,1.19436 4.66353,4.05851 5.95101,5.86804 6.40048,8.99573 6.00555,21.9503 -0.93545,30.68482 -5.04777,6.35208 -13.76209,9.86868 -22.61036,9.12424 z m 5.62512,-11.23554 c 5.01524,-1.18246 8.87193,-5.05625 10.14002,-10.18498 0.92294,-3.73278 0.18193,-8.42914 -1.81771,-11.52036 -2.61592,-4.04392 -6.60722,-6.20672 -11.45404,-6.20672 -7.79735,0 -13.45455,5.94734 -13.46968,14.16052 -0.007,4.01196 1.46045,7.68431 4.11605,10.29782 3.26298,3.21126 7.97976,4.51602 12.48536,3.45372 z m 77.85093,11.2238 c -2.87909,-0.25068 -5.10587,-0.88014 -7.80521,-2.20637 -5.18717,-2.54854 -8.42883,-6.90275 -9.02678,-12.12481 l -0.1742,-1.52135 h 5.59268 5.59267 v 0.71021 c 0,1.10738 0.99927,2.90216 2.17716,3.91039 2.52764,2.16356 7.14982,2.5126 10.53786,0.79575 3.81374,-1.93257 4.20986,-6.31176 0.73145,-8.08631 -0.58058,-0.29619 -3.57565,-1.18944 -6.65572,-1.985 -10.51341,-2.71556 -14.62339,-5.67011 -16.1752,-11.62791 -1.49342,-5.73362 0.77664,-11.36984 5.96987,-14.82229 5.88216,-3.91046 14.68841,-4.34501 21.51475,-1.06168 4.53676,2.1821 7.829,6.93933 7.829,11.31278 v 1.27489 h -5.54605 -5.54605 l -0.30157,-1.11993 c -0.6165,-2.28952 -3.47403,-4.17173 -6.33341,-4.17173 -3.64751,0 -6.84355,2.97141 -6.22503,5.78751 0.52269,2.37978 2.02956,3.23996 8.87086,5.06383 8.08625,2.15576 10.29659,3.14941 12.98411,5.83693 3.87636,3.87636 4.77982,9.86965 2.27047,15.06173 -2.87113,5.94066 -11.46141,9.74131 -20.28166,8.97336 z M 117.13657,873.89504 v -37.04167 h 5.95312 5.95312 l 0.0117,16.60261 0.0117,16.6026 0.55743,-1.05833 c 2.10324,-3.99325 8.65413,-7.27604 14.51949,-7.27604 10.71376,0 17.42436,6.52413 18.76772,18.24623 0.14239,1.24244 0.25986,8.71811 0.26106,16.61262 l 0.002,14.35364 h -5.95313 -5.95312 v -13.85451 c 0,-7.61998 -0.1111,-14.44031 -0.24688,-15.15629 -1.17082,-6.17373 -5.85499,-9.74317 -11.61346,-8.84971 -5.05869,0.78488 -8.40797,3.47631 -9.89338,7.95018 -0.55577,1.67388 -0.57852,2.20665 -0.67577,15.82127 l -0.10064,14.08906 h -5.80056 -5.80056 z m 184.41458,0 v -37.04167 h 5.95312 5.95313 v 37.04167 37.04166 h -5.95313 -5.95312 z M 118.86874,800.89306 c -0.78307,-1.39489 -25.484249,-45.39079 -54.891509,-97.76865 -29.40726,-52.37787 -53.467743,-95.27054 -53.467743,-95.31705 0,-0.0465 16.985583,-0.0544 37.745733,-0.0175 l 37.74573,0.067 17.340859,30.8901 c 9.53746,16.98956 17.4103,30.89011 17.49518,30.89011 0.0849,0 2.00964,-3.30399 4.27722,-7.34219 2.26759,-4.0382 8.03168,-14.30734 12.80908,-22.82031 4.7774,-8.51297 10.73192,-19.10953 13.23226,-23.54792 l 4.54608,-8.06979 42.03992,-0.067 42.03992,-0.067 36.04513,64.16502 c 19.82482,35.29076 36.07448,64.2599 36.11036,64.37586 0.0359,0.11596 -8.38821,15.29026 -18.72019,33.72068 -14.01086,24.99299 -18.85887,33.42868 -19.07442,33.19017 -0.15895,-0.17588 -17.29127,-30.62119 -38.07181,-67.65624 -20.78054,-37.03505 -37.92206,-67.48854 -38.09225,-67.67441 -0.2419,-0.26419 -8.62869,14.48665 -38.42436,67.58144 -31.61002,56.3279 -38.21275,67.9266 -38.68817,67.96162 -0.46439,0.0342 -0.84361,-0.43936 -1.99702,-2.49394 z M 329.86156,673.18488 c -9.17353,-1.08434 -15.73091,-3.40501 -22.14989,-7.83891 -2.08085,-1.43734 -5.36677,-4.3373 -5.36677,-4.73639 0,-0.19539 7.94705,-12.46278 8.36361,-12.91042 0.0562,-0.0604 0.66793,0.38528 1.35939,0.99038 3.07841,2.69397 8.15213,5.69224 11.6716,6.89723 4.31968,1.47896 9.89062,1.87751 13.66269,0.97745 4.92782,-1.17584 9.00555,-4.25725 10.89287,-8.23141 0.87856,-1.85002 0.98249,-2.30659 1.09358,-4.80435 0.0937,-2.10717 0.0131,-3.16524 -0.3409,-4.47293 -0.96269,-3.55647 -3.66703,-6.54527 -7.6768,-8.48431 -3.63427,-1.75747 -6.30282,-2.25642 -13.08563,-2.44672 l -5.67731,-0.15928 -1.92777,-4.32265 -1.92777,-4.32265 1.93675,-2.29193 c 1.06522,-1.26056 5.24601,-6.22099 9.29065,-11.02318 4.04464,-4.80219 8.61741,-10.01117 10.16172,-11.57552 l 2.80784,-2.84427 h -18.31789 -18.31788 v -7.40834 -7.40833 h 28.83958 28.83958 v 5.51809 5.51809 l -11.51212,13.30867 c -6.33168,7.31977 -11.47306,13.34774 -11.4253,13.3955 0.0478,0.0478 1.03126,0.28166 2.18556,0.51978 4.05082,0.83564 8.57208,2.71754 11.88832,4.94832 2.23418,1.5029 5.78264,5.02035 7.17591,7.11323 5.15577,7.74459 5.92826,17.73231 2.09812,27.12692 -2.61407,6.4118 -7.99708,12.1725 -14.38803,15.39753 -2.32734,1.17444 -6.60613,2.56445 -9.43808,3.06608 -2.33129,0.41294 -8.8809,0.72119 -10.71563,0.50432 z"
       id="path2595" /></g></svg>
